<svg aria-hidden="true" style="position:absolute;width:0;height:0;overflow:hidden" xmlns="http://www.w3.org/2000/svg">
  <defs>
  <symbol id="icon-heroicons-solid_menu" viewBox="0 0 32 32">
      <path d="M4.799 8.001a1.6 1.6 0 0 1 1.6-1.6h19.2a1.6 1.6 0 0 1 0 3.2h-19.2a1.6 1.6 0 0 1-1.6-1.6zM4.799 16.001a1.6 1.6 0 0 1 1.6-1.6h19.2a1.6 1.6 0 0 1 0 3.2h-19.2a1.6 1.6 0 0 1-1.6-1.6zM4.799 24.001a1.6 1.6 0 0 1 1.6-1.6h19.2a1.6 1.6 0 0 1 0 3.2h-19.2a1.6 1.6 0 0 1-1.6-1.6z"/>
    </symbol>
  <symbol id="icon-Vector-1-1" viewBox="0 0 40 32">
      <path fill="#f4f4fd" style="fill:var(--color1, #f4f4fd)" d="M33.782 1.02a3.668 3.668 0 0 1 5.115.039 3.712 3.712 0 0 1 .135 5.141L19.454 30.817a3.674 3.674 0 0 1-4.074.914 3.675 3.675 0 0 1-1.226-.815L1.17 17.862A3.693 3.693 0 0 1-.001 15.22a3.714 3.714 0 0 1 1.077-2.682 3.664 3.664 0 0 1 4.1-.763 3.68 3.68 0 0 1 1.195.857l10.275 10.325 17.042-21.83c.031-.038.063-.074.098-.109h-.005z"/>
    </symbol>
<symbol id="icon-name" viewBox="0 0 32 32">
      <path d="M12 16c2.21 0 4-1.79 4-4s-1.79-4-4-4-4 1.79-4 4 1.79 4 4 4zm0 2c-2.67 0-8 1.34-8 4v1c0 .55.45 1 1 1h14c.55 0 1-.45 1-1v-1c0-2.66-5.33-4-8-4z"/>
      <path stroke-linecap="round" stroke-width="1.667" d="M30.167 4.833v22.333"/>
    </symbol>

<symbol id="icon-close-black-18dp-2-1-2" viewBox="0 0 32 32">
      <path d="M32 3.223 28.777 0 16 12.777 3.223 0 0 3.223 12.777 16 0 28.777 3.223 32 16 19.223 28.777 32 32 28.777 19.223 16 32 3.223z"/>
    </symbol>
    <symbol id="icon-Frame-2-1" viewBox="0 0 720 32">
      <path stroke-width="2" d="M4 1h24a3 3 0 0 1 3 3v24a3 3 0 0 1-3 3H4a3 3 0 0 1-3-3V4a3 3 0 0 1 3-3z"/>
      <path d="M52.406 6.938v17.063h-2.262V6.938h2.262zm19.135 14.894v-6.527c0-.5-.101-.934-.305-1.301-.195-.375-.492-.664-.891-.867s-.891-.305-1.477-.305c-.547 0-1.027.094-1.441.281a2.52 2.52 0 0 0-.961.738c-.226.305-.34.633-.34.984h-2.168c0-.453.117-.902.352-1.348s.57-.848 1.008-1.207a5.043 5.043 0 0 1 1.594-.867c.625-.219 1.32-.328 2.086-.328.922 0 1.734.156 2.437.469a3.651 3.651 0 0 1 1.664 1.418c.406.625.609 1.41.609 2.355v5.906c0 .422.035.871.106 1.348.078.477.191.887.34 1.23v.188h-2.262c-.109-.25-.195-.582-.258-.996a8.113 8.113 0 0 1-.094-1.172zm.375-5.519.024 1.523h-2.191c-.617 0-1.168.051-1.652.152-.484.094-.891.238-1.219.434s-.578.441-.75.738a1.956 1.956 0 0 0-.258 1.019c0 .399.09.762.27 1.09s.449.59.809.785c.367.188.816.281 1.348.281.664 0 1.25-.141 1.758-.422s.91-.625 1.207-1.031c.305-.406.469-.801.492-1.184l.926 1.043c-.055.328-.203.691-.445 1.09s-.567.781-.973 1.148c-.398.359-.875.66-1.43.902-.547.234-1.164.352-1.852.352-.859 0-1.613-.168-2.262-.504-.641-.336-1.141-.785-1.5-1.348a3.571 3.571 0 0 1-.527-1.91c0-.68.133-1.277.398-1.793a3.47 3.47 0 0 1 1.148-1.301c.5-.352 1.102-.617 1.805-.797s1.488-.27 2.356-.27h2.519zm11.237 6.14c.516 0 .992-.106 1.43-.316s.797-.5 1.078-.867c.281-.375.441-.801.481-1.277h2.062c-.039.75-.293 1.449-.762 2.098a5.203 5.203 0 0 1-1.816 1.559 5.267 5.267 0 0 1-2.473.586c-.953 0-1.785-.168-2.496-.504a4.952 4.952 0 0 1-1.758-1.383 6.17 6.17 0 0 1-1.043-2.016 8.492 8.492 0 0 1-.34-2.426v-.492c0-.852.113-1.656.34-2.414a6.146 6.146 0 0 1 1.043-2.027 4.952 4.952 0 0 1 1.758-1.383c.711-.336 1.543-.504 2.496-.504.992 0 1.859.203 2.602.609a4.468 4.468 0 0 1 1.746 1.641c.43.688.664 1.469.703 2.344h-2.062a3.134 3.134 0 0 0-.445-1.418 2.779 2.779 0 0 0-1.031-1.008c-.43-.258-.934-.387-1.512-.387-.664 0-1.223.133-1.676.398a2.93 2.93 0 0 0-1.066 1.055 4.92 4.92 0 0 0-.562 1.465 8.08 8.08 0 0 0-.164 1.629v.492c0 .555.055 1.102.164 1.641s.293 1.027.551 1.465c.266.437.621.789 1.066 1.055.453.258 1.016.387 1.687.387zm13.523 0c.516 0 .992-.106 1.43-.316s.797-.5 1.078-.867c.281-.375.441-.801.48-1.277h2.063c-.039.75-.293 1.449-.762 2.098a5.203 5.203 0 0 1-1.816 1.559 5.267 5.267 0 0 1-2.473.586c-.953 0-1.785-.168-2.496-.504a4.952 4.952 0 0 1-1.758-1.383 6.17 6.17 0 0 1-1.043-2.016 8.527 8.527 0 0 1-.34-2.426v-.492c0-.852.113-1.656.34-2.414a6.146 6.146 0 0 1 1.043-2.027 4.952 4.952 0 0 1 1.758-1.383c.711-.336 1.543-.504 2.496-.504.992 0 1.859.203 2.602.609a4.468 4.468 0 0 1 1.746 1.641c.43.688.664 1.469.703 2.344h-2.063a3.122 3.122 0 0 0-.445-1.418 2.779 2.779 0 0 0-1.031-1.008c-.43-.258-.934-.387-1.512-.387-.664 0-1.223.133-1.676.398a2.93 2.93 0 0 0-1.066 1.055 4.948 4.948 0 0 0-.563 1.465 8.08 8.08 0 0 0-.164 1.629v.492c0 .555.055 1.102.164 1.641s.293 1.027.551 1.465c.266.437.621.789 1.066 1.055.453.258 1.016.387 1.688.387zm13.71 1.781c-.883 0-1.684-.148-2.402-.445a5.452 5.452 0 0 1-1.84-1.277c-.508-.547-.898-1.195-1.172-1.945s-.41-1.57-.41-2.461v-.492c0-1.031.152-1.949.457-2.754.305-.813.719-1.5 1.242-2.063s1.117-.988 1.781-1.277 1.352-.434 2.062-.434c.906 0 1.688.156 2.344.469.664.313 1.207.75 1.629 1.313.422.555.734 1.211.937 1.969.203.75.305 1.57.305 2.461v.973h-9.469v-1.77h7.301v-.164a5.378 5.378 0 0 0-.352-1.641c-.195-.531-.508-.969-.938-1.313s-1.016-.516-1.758-.516a2.949 2.949 0 0 0-2.425 1.23c-.296.406-.527.902-.692 1.488-.164.586-.246 1.262-.246 2.027v.492c0 .602.082 1.168.246 1.699.172.524.418.984.738 1.383.328.398.723.711 1.184.937.469.227 1 .34 1.594.34.766 0 1.414-.156 1.945-.469s.996-.73 1.395-1.254l1.312 1.043c-.273.414-.621.809-1.043 1.184s-.941.68-1.558.914c-.609.234-1.332.352-2.168.352zm10.593-10.476v15.117h-2.18V11.32h1.992l.188 2.438zm8.543 3.797v.246c0 .922-.109 1.777-.328 2.566-.219.781-.539 1.461-.961 2.039-.414.578-.926 1.027-1.535 1.348s-1.309.48-2.098.48c-.805 0-1.516-.133-2.133-.398s-1.141-.652-1.57-1.16a5.904 5.904 0 0 1-1.031-1.828 10.599 10.599 0 0 1-.516-2.402v-1.313c.094-.938.27-1.777.527-2.52s.598-1.375 1.02-1.898c.43-.531.949-.934 1.559-1.207.609-.281 1.312-.422 2.109-.422s1.504.156 2.121.469c.617.305 1.137.742 1.559 1.313s.738 1.254.949 2.051c.219.789.328 1.668.328 2.637zm-2.18.246v-.246c0-.633-.066-1.227-.199-1.781a4.51 4.51 0 0 0-.621-1.477 2.958 2.958 0 0 0-1.055-1.008c-.43-.25-.941-.375-1.535-.375-.547 0-1.023.094-1.43.281a3.103 3.103 0 0 0-1.02.762 4.042 4.042 0 0 0-.691 1.078 6.194 6.194 0 0 0-.387 1.242v3.035c.156.547.375 1.063.656 1.547.281.477.656.863 1.125 1.16.469.289 1.059.434 1.77.434.586 0 1.09-.121 1.512-.363.43-.25.781-.59 1.055-1.019a4.66 4.66 0 0 0 .621-1.477c.133-.563.199-1.16.199-1.793zm11.214-6.481v1.664H131.7V11.32h6.856zm-4.535-3.082h2.168v12.621c0 .43.066.754.199.973s.305.363.516.434c.211.07.437.105.68.105.18 0 .367-.016.563-.047.203-.039.355-.07.457-.094l.012 1.77a5.065 5.065 0 0 1-.68.152 5.137 5.137 0 0 1-.996.082c-.531 0-1.02-.105-1.465-.316s-.801-.563-1.066-1.055c-.258-.5-.387-1.172-.387-2.016V8.238zm20.26 3.082v1.664h-6.855V11.32h6.855zm-4.536-3.082h2.168v12.621c0 .43.066.754.199.973s.305.363.516.434c.211.07.438.105.68.105.18 0 .367-.016.562-.047.203-.039.356-.07.457-.094l.012 1.77a5.029 5.029 0 0 1-.68.152 5.151 5.151 0 0 1-.996.082c-.531 0-1.019-.105-1.465-.316s-.801-.563-1.066-1.055c-.258-.5-.387-1.172-.387-2.016V8.238zM159.952 6v18h-2.168V6h2.168zm-.516 11.18-.902-.035a7.63 7.63 0 0 1 .387-2.402c.25-.742.601-1.387 1.055-1.934s.992-.969 1.617-1.266a4.768 4.768 0 0 1 2.098-.457c.625 0 1.188.086 1.688.258.5.164.926.43 1.277.797.359.367.633.844.82 1.43.187.578.281 1.285.281 2.121v8.309h-2.18v-8.332c0-.664-.098-1.195-.293-1.594a1.802 1.802 0 0 0-.855-.879c-.375-.188-.836-.281-1.383-.281-.539 0-1.031.113-1.477.34a3.535 3.535 0 0 0-1.137.938 4.7 4.7 0 0 0-.738 1.371 5.008 5.008 0 0 0-.258 1.617zm17.788 7.054c-.883 0-1.684-.148-2.402-.445a5.452 5.452 0 0 1-1.84-1.277c-.508-.547-.898-1.195-1.172-1.945s-.41-1.57-.41-2.461v-.492c0-1.031.152-1.949.457-2.754.305-.813.719-1.5 1.242-2.063s1.117-.988 1.781-1.277a5.115 5.115 0 0 1 2.062-.434c.906 0 1.688.156 2.344.469.664.313 1.207.75 1.629 1.313.422.555.734 1.211.938 1.969.203.75.305 1.57.305 2.461v.973h-9.469v-1.77h7.301v-.164a5.407 5.407 0 0 0-.351-1.641c-.195-.531-.508-.969-.938-1.313s-1.016-.516-1.758-.516a2.949 2.949 0 0 0-2.425 1.23c-.297.406-.527.902-.691 1.488s-.246 1.262-.246 2.027v.492c0 .602.082 1.168.246 1.699.172.524.418.984.738 1.383.328.398.723.711 1.183.937.469.227 1 .34 1.594.34.766 0 1.414-.156 1.945-.469s.996-.73 1.394-1.254l1.313 1.043c-.273.414-.621.809-1.043 1.184s-.941.68-1.559.914c-.609.234-1.332.352-2.168.352zm20.647-12.914v1.664h-6.855V11.32h6.855zm-4.536-3.082h2.168v12.621c0 .43.066.754.199.973s.305.363.516.434c.211.07.438.105.68.105.18 0 .367-.016.562-.047.203-.039.356-.07.457-.094l.012 1.77a5.029 5.029 0 0 1-.68.152 5.151 5.151 0 0 1-.996.082c-.531 0-1.019-.105-1.465-.316s-.801-.563-1.066-1.055c-.258-.5-.387-1.172-.387-2.016V8.238zm13.301 15.996c-.884 0-1.684-.148-2.404-.445a5.434 5.434 0 0 1-1.838-1.277 5.656 5.656 0 0 1-1.172-1.945c-.274-.75-.41-1.57-.41-2.461v-.492c0-1.031.152-1.949.456-2.754.304-.813.718-1.5 1.242-2.063s1.118-.988 1.782-1.277a5.119 5.119 0 0 1 2.062-.434c.906 0 1.688.156 2.344.469.664.313 1.206.75 1.628 1.313.422.555.736 1.211.938 1.969.204.75.304 1.57.304 2.461v.973H202.1v-1.77h7.3v-.164a5.405 5.405 0 0 0-.35-1.641c-.196-.531-.508-.969-.938-1.313s-1.016-.516-1.758-.516c-.492 0-.946.105-1.36.316a2.904 2.904 0 0 0-1.066.914c-.296.406-.528.902-.692 1.488s-.246 1.262-.246 2.027v.492c0 .602.082 1.168.246 1.699.172.524.418.984.74 1.383.328.398.722.711 1.182.937.47.227 1 .34 1.594.34.766 0 1.414-.156 1.946-.469s.996-.73 1.394-1.254l1.312 1.043c-.272.414-.62.809-1.042 1.184s-.942.68-1.558.914c-.61.234-1.332.352-2.168.352zm10.592-10.921v10.688h-2.168v-12.68h2.11l.058 1.992zm3.962-2.063-.012 2.016a3.06 3.06 0 0 0-.516-.07 5.382 5.382 0 0 0-.54-.023c-.5 0-.94.078-1.324.234-.382.156-.706.375-.972.656s-.476.617-.634 1.008a4.83 4.83 0 0 0-.292 1.266l-.61.352c0-.766.074-1.484.224-2.156a5.86 5.86 0 0 1 .714-1.781 3.5 3.5 0 0 1 1.218-1.219c.5-.297 1.094-.445 1.782-.445.156 0 .336.02.54.059.202.031.342.066.422.105zm5.12 2.59V24h-2.18V11.32h2.062l.118 2.52zm-.446 3.34-1.008-.035a8.692 8.692 0 0 1 .34-2.402c.218-.742.542-1.387.972-1.934s.966-.969 1.606-1.266c.64-.305 1.382-.457 2.226-.457.594 0 1.142.086 1.642.258.5.164.932.426 1.3.785s.652.82.856 1.383c.202.563.304 1.242.304 2.039V24h-2.168v-8.344c0-.664-.114-1.195-.34-1.594a1.931 1.931 0 0 0-.938-.867c-.406-.188-.882-.281-1.428-.281-.642 0-1.176.113-1.606.34s-.774.539-1.032.938a4.228 4.228 0 0 0-.562 1.371 7.628 7.628 0 0 0-.164 1.617zm8.214-1.196-1.452.445c.008-.695.12-1.363.34-2.004.226-.641.55-1.211.972-1.711.43-.5.958-.895 1.582-1.184.626-.297 1.34-.445 2.144-.445.68 0 1.282.09 1.806.27.53.18.976.457 1.336.832.366.367.644.84.832 1.418.186.578.28 1.266.28 2.063V24h-2.18v-8.355c0-.711-.112-1.262-.338-1.652a1.778 1.778 0 0 0-.938-.832c-.398-.164-.876-.246-1.43-.246-.476 0-.898.082-1.266.246a2.628 2.628 0 0 0-.926.68c-.25.281-.44.605-.574.973a3.64 3.64 0 0 0-.188 1.172zm19.464 4.653c0-.313-.07-.602-.21-.867-.134-.273-.41-.52-.832-.738-.414-.227-1.04-.422-1.876-.586a14.839 14.839 0 0 1-1.91-.527 5.781 5.781 0 0 1-1.44-.738 3.096 3.096 0 0 1-.904-1.02c-.21-.391-.316-.848-.316-1.371 0-.5.11-.973.328-1.418.228-.445.544-.84.95-1.184.414-.344.91-.613 1.488-.809s1.222-.293 1.934-.293c1.016 0 1.882.18 2.602.539.718.359 1.268.84 1.652 1.441.382.594.574 1.254.574 1.98h-2.168a1.87 1.87 0 0 0-.316-1.02c-.204-.336-.504-.613-.904-.832-.39-.219-.87-.328-1.44-.328-.602 0-1.09.094-1.466.281-.366.18-.636.41-.808.691a1.74 1.74 0 0 0-.246.891c0 .234.04.445.118.633.086.18.234.348.444.504.212.148.508.289.892.422.382.133.87.266 1.464.398 1.04.234 1.894.516 2.566.844s1.172.73 1.5 1.207c.328.477.492 1.055.492 1.734a3.31 3.31 0 0 1-.35 1.523c-.228.461-.56.859-.998 1.195a4.914 4.914 0 0 1-1.546.773c-.594.18-1.262.27-2.004.27-1.118 0-2.062-.199-2.836-.598s-1.36-.914-1.758-1.547-.598-1.301-.598-2.004h2.18c.032.594.204 1.066.516 1.418.312.344.696.59 1.148.738a4.52 4.52 0 0 0 1.348.211c.594 0 1.09-.078 1.488-.234.406-.156.716-.371.926-.645.212-.273.316-.586.316-.937zm20.366 1.195v-6.527c0-.5-.102-.934-.304-1.301a1.992 1.992 0 0 0-.892-.867c-.398-.203-.89-.305-1.476-.305-.546 0-1.028.094-1.442.281a2.516 2.516 0 0 0-.96.738c-.226.305-.34.633-.34.984h-2.168c0-.453.118-.902.352-1.348s.57-.848 1.008-1.207a5.02 5.02 0 0 1 1.594-.867c.624-.219 1.32-.328 2.086-.328.92 0 1.734.156 2.436.469a3.646 3.646 0 0 1 1.664 1.418c.406.625.61 1.41.61 2.355v5.906c0 .422.036.871.106 1.348.078.477.19.887.34 1.23v.188h-2.262c-.11-.25-.196-.582-.258-.996a8.113 8.113 0 0 1-.094-1.172zm.374-5.519.024 1.523h-2.19a8.16 8.16 0 0 0-1.654.152c-.484.094-.89.238-1.218.434s-.578.441-.75.738a1.956 1.956 0 0 0-.258 1.019c0 .399.09.762.27 1.09s.448.59.808.785c.368.188.816.281 1.348.281.664 0 1.25-.141 1.758-.422s.91-.625 1.206-1.031c.306-.406.47-.801.492-1.184l.926 1.043c-.054.328-.202.691-.444 1.09s-.568.781-.974 1.148c-.398.359-.874.66-1.428.902-.548.234-1.166.352-1.852.352-.86 0-1.614-.168-2.262-.504-.64-.336-1.14-.785-1.5-1.348a3.563 3.563 0 0 1-.528-1.91c0-.68.134-1.277.398-1.793.266-.523.65-.957 1.15-1.301.5-.352 1.1-.617 1.804-.797s1.488-.27 2.356-.27h2.518zm8.332-2.286V24h-2.168V11.32h2.05l.118 2.707zm-.516 3.153-.902-.035a7.63 7.63 0 0 1 .386-2.402 5.987 5.987 0 0 1 1.056-1.934 4.695 4.695 0 0 1 3.714-1.723c.626 0 1.188.086 1.688.258.5.164.926.43 1.278.797.358.367.632.844.82 1.43.186.578.28 1.285.28 2.121v8.309h-2.178v-8.332c0-.664-.098-1.195-.294-1.594-.196-.406-.48-.699-.856-.879-.374-.188-.836-.281-1.382-.281-.54 0-1.032.113-1.476.34a3.528 3.528 0 0 0-1.138.938 4.724 4.724 0 0 0-.738 1.371 5.008 5.008 0 0 0-.258 1.617zm20.566 4.359V6h2.18v18h-1.992l-.188-2.461zm-8.532-3.738v-.246c0-.969.118-1.848.352-2.637.242-.797.582-1.48 1.02-2.051a4.621 4.621 0 0 1 1.582-1.313c.616-.313 1.304-.469 2.062-.469.798 0 1.492.141 2.086.422a4.01 4.01 0 0 1 1.524 1.207c.422.523.754 1.156.996 1.898s.41 1.582.504 2.52v1.078c-.086.93-.254 1.766-.504 2.508-.242.742-.574 1.375-.996 1.898a4.169 4.169 0 0 1-1.524 1.207c-.602.273-1.304.41-2.11.41-.742 0-1.422-.16-2.038-.48a4.812 4.812 0 0 1-1.582-1.348 6.555 6.555 0 0 1-1.02-2.039 8.992 8.992 0 0 1-.352-2.566zm2.18-.246v.246c0 .633.062 1.227.188 1.781.132.555.336 1.043.61 1.465.272.422.62.754 1.042.996.422.234.926.352 1.512.352.718 0 1.308-.152 1.77-.457a3.403 3.403 0 0 0 1.124-1.207c.282-.5.5-1.043.656-1.629v-2.824a6.236 6.236 0 0 0-.41-1.242 3.808 3.808 0 0 0-.68-1.078 2.932 2.932 0 0 0-1.018-.762c-.4-.188-.872-.281-1.418-.281-.594 0-1.106.125-1.536.375a2.97 2.97 0 0 0-1.042 1.008 4.628 4.628 0 0 0-.61 1.477 8.028 8.028 0 0 0-.188 1.781zm24.854 4.898c.516 0 .992-.106 1.43-.316s.796-.5 1.078-.867c.28-.375.442-.801.48-1.277h2.062c-.038.75-.292 1.449-.762 2.098-.46.641-1.066 1.16-1.816 1.559a5.266 5.266 0 0 1-2.472.586c-.954 0-1.786-.168-2.496-.504a4.934 4.934 0 0 1-1.758-1.383 6.187 6.187 0 0 1-1.042-2.016 8.457 8.457 0 0 1-.34-2.426v-.492c0-.852.112-1.656.34-2.414a6.163 6.163 0 0 1 1.042-2.027 4.934 4.934 0 0 1 1.758-1.383c.71-.336 1.542-.504 2.496-.504.992 0 1.86.203 2.602.609a4.468 4.468 0 0 1 1.746 1.641c.43.688.664 1.469.702 2.344h-2.062a3.111 3.111 0 0 0-.446-1.418 2.769 2.769 0 0 0-1.03-1.008c-.43-.258-.934-.387-1.512-.387-.664 0-1.222.133-1.676.398a2.93 2.93 0 0 0-1.066 1.055 4.893 4.893 0 0 0-.562 1.465 8.01 8.01 0 0 0-.164 1.629v.492c0 .555.054 1.102.164 1.641a4.67 4.67 0 0 0 .55 1.465c.266.437.622.789 1.066 1.055.454.258 1.016.387 1.688.387zm7.874-4.652v-.27c0-.914.132-1.762.398-2.543a6.048 6.048 0 0 1 1.148-2.051 5.115 5.115 0 0 1 1.818-1.359c.71-.328 1.508-.492 2.39-.492.89 0 1.692.164 2.402.492.72.32 1.328.773 1.828 1.359a5.94 5.94 0 0 1 1.16 2.051c.266.781.398 1.629.398 2.543v.27c0 .914-.132 1.762-.398 2.543s-.652 1.465-1.16 2.051a5.322 5.322 0 0 1-1.816 1.359c-.704.32-1.5.48-2.39.48-.892 0-1.692-.16-2.402-.48a5.433 5.433 0 0 1-1.83-1.359c-.5-.586-.882-1.27-1.148-2.051s-.398-1.629-.398-2.543zm2.168-.27v.27c0 .633.074 1.23.222 1.793.15.555.372 1.047.668 1.477.306.43.684.769 1.138 1.019.452.242.98.363 1.582.363.594 0 1.112-.121 1.558-.363.454-.25.828-.59 1.124-1.019.298-.43.52-.922.668-1.477.158-.563.236-1.16.236-1.793v-.27c0-.625-.078-1.215-.236-1.77a4.546 4.546 0 0 0-.678-1.488 3.23 3.23 0 0 0-1.126-1.031c-.446-.25-.968-.375-1.57-.375-.594 0-1.118.125-1.57.375-.446.25-.82.594-1.126 1.031-.296.43-.518.926-.668 1.488a6.845 6.845 0 0 0-.222 1.77zm15.222-3.504V24h-2.168V11.32h2.05l.118 2.707zm-.516 3.153-.902-.035a7.63 7.63 0 0 1 .386-2.402 5.987 5.987 0 0 1 1.056-1.934 4.695 4.695 0 0 1 3.714-1.723c.624 0 1.188.086 1.688.258.5.164.926.43 1.276.797.36.367.634.844.822 1.43.186.578.28 1.285.28 2.121v8.309h-2.18v-8.332c0-.664-.096-1.195-.292-1.594-.196-.406-.48-.699-.856-.879-.374-.188-.836-.281-1.382-.281-.54 0-1.032.113-1.478.34a3.542 3.542 0 0 0-1.136.938 4.724 4.724 0 0 0-.738 1.371 5.008 5.008 0 0 0-.258 1.617zm20.566 4.359V6h2.18v18h-1.992l-.188-2.461zm-8.532-3.738v-.246c0-.969.118-1.848.352-2.637.242-.797.582-1.48 1.02-2.051a4.603 4.603 0 0 1 1.582-1.313c.616-.313 1.304-.469 2.062-.469.796 0 1.492.141 2.086.422a4.01 4.01 0 0 1 1.524 1.207c.422.523.754 1.156.996 1.898s.41 1.582.504 2.52v1.078c-.086.93-.254 1.766-.504 2.508-.242.742-.574 1.375-.996 1.898a4.169 4.169 0 0 1-1.524 1.207c-.602.273-1.304.41-2.11.41-.742 0-1.422-.16-2.038-.48a4.792 4.792 0 0 1-1.582-1.348 6.555 6.555 0 0 1-1.02-2.039 8.992 8.992 0 0 1-.352-2.566zm2.18-.246v.246c0 .633.062 1.227.188 1.781a4.68 4.68 0 0 0 .608 1.465 3.03 3.03 0 0 0 1.044.996c.422.234.926.352 1.512.352.718 0 1.308-.152 1.77-.457.468-.305.842-.707 1.124-1.207s.5-1.043.656-1.629v-2.824a6.236 6.236 0 0 0-.41-1.242 3.808 3.808 0 0 0-.68-1.078 2.922 2.922 0 0 0-1.02-.762c-.398-.188-.87-.281-1.418-.281-.592 0-1.104.125-1.534.375-.422.242-.77.578-1.044 1.008a4.672 4.672 0 0 0-.608 1.477 8.028 8.028 0 0 0-.188 1.781zm15.222-6.235V24h-2.18V11.32h2.18zm-2.344-3.363c0-.352.106-.648.316-.891.22-.242.54-.363.962-.363.414 0 .73.121.948.363.228.242.34.539.34.891 0 .336-.112.625-.34.867-.218.234-.534.352-.948.352-.422 0-.742-.117-.962-.352a1.28 1.28 0 0 1-.316-.867zm12.092 3.363v1.664h-6.854V11.32h6.854zm-4.534-3.082h2.168v12.621c0 .43.066.754.198.973a.963.963 0 0 0 .516.434c.212.07.438.105.68.105.18 0 .368-.016.562-.047.204-.039.356-.07.458-.094l.012 1.77c-.172.055-.4.105-.68.152a5.151 5.151 0 0 1-.996.082c-.532 0-1.02-.105-1.466-.316-.444-.211-.8-.563-1.066-1.055-.258-.5-.386-1.172-.386-2.016V8.238zm10.394 3.082V24h-2.18V11.32h2.18zm-2.344-3.363c0-.352.104-.648.316-.891.218-.242.538-.363.96-.363.414 0 .732.121.95.363.226.242.34.539.34.891 0 .336-.114.625-.34.867-.218.234-.536.352-.95.352-.422 0-.742-.117-.96-.352a1.27 1.27 0 0 1-.316-.867zm6.21 9.844v-.27c0-.914.132-1.762.398-2.543a6.048 6.048 0 0 1 1.148-2.051 5.125 5.125 0 0 1 1.816-1.359c.712-.328 1.508-.492 2.392-.492.89 0 1.69.164 2.402.492.718.32 1.328.773 1.828 1.359a5.94 5.94 0 0 1 1.16 2.051c.266.781.398 1.629.398 2.543v.27c0 .914-.132 1.762-.398 2.543s-.652 1.465-1.16 2.051a5.322 5.322 0 0 1-1.816 1.359c-.704.32-1.5.48-2.392.48-.89 0-1.69-.16-2.402-.48a5.445 5.445 0 0 1-1.828-1.359c-.5-.586-.882-1.27-1.148-2.051s-.398-1.629-.398-2.543zm2.168-.27v.27c0 .633.074 1.23.222 1.793.148.555.372 1.047.668 1.477.304.43.684.769 1.136 1.019.454.242.982.363 1.582.363.594 0 1.114-.121 1.56-.363.452-.25.828-.59 1.124-1.019.298-.43.52-.922.668-1.477.156-.563.234-1.16.234-1.793v-.27c0-.625-.078-1.215-.234-1.77a4.509 4.509 0 0 0-.68-1.488 3.224 3.224 0 0 0-1.124-1.031c-.446-.25-.97-.375-1.57-.375-.594 0-1.118.125-1.57.375-.446.25-.822.594-1.126 1.031-.296.43-.52.926-.668 1.488a6.845 6.845 0 0 0-.222 1.77zm15.222-3.504V24h-2.168V11.32h2.05l.118 2.707zm-.516 3.153-.902-.035a7.573 7.573 0 0 1 .386-2.402 6.021 6.021 0 0 1 1.054-1.934 4.702 4.702 0 0 1 3.716-1.723c.624 0 1.186.086 1.686.258.5.164.926.43 1.278.797.36.367.634.844.82 1.43.188.578.282 1.285.282 2.121v8.309h-2.18v-8.332c0-.664-.098-1.195-.292-1.594a1.812 1.812 0 0 0-.856-.879c-.376-.188-.836-.281-1.384-.281-.538 0-1.03.113-1.476.34a3.52 3.52 0 0 0-1.136.938 4.724 4.724 0 0 0-.738 1.371 5.008 5.008 0 0 0-.258 1.617zm19.956 3.457c0-.313-.07-.602-.212-.867-.132-.273-.41-.52-.832-.738-.414-.227-1.038-.422-1.874-.586a14.749 14.749 0 0 1-1.91-.527 5.762 5.762 0 0 1-1.442-.738 3.09 3.09 0 0 1-.902-1.02c-.212-.391-.316-.848-.316-1.371 0-.5.108-.973.328-1.418.226-.445.542-.84.948-1.184.414-.344.91-.613 1.488-.809a6.04 6.04 0 0 1 1.934-.293c1.016 0 1.884.18 2.602.539s1.27.84 1.652 1.441c.384.594.574 1.254.574 1.98h-2.168c0-.352-.104-.691-.316-1.02-.202-.336-.504-.613-.902-.832-.39-.219-.872-.328-1.442-.328-.602 0-1.09.094-1.464.281-.368.18-.638.41-.808.691a1.74 1.74 0 0 0-.246.891c0 .234.038.445.116.633.086.18.234.348.446.504.21.148.508.289.89.422s.872.266 1.464.398c1.04.234 1.896.516 2.568.844s1.172.73 1.5 1.207c.328.477.492 1.055.492 1.734a3.366 3.366 0 0 1-1.348 2.718c-.43.328-.946.586-1.546.773-.594.18-1.262.27-2.004.27-1.118 0-2.064-.199-2.836-.598-.774-.399-1.36-.914-1.758-1.547a3.69 3.69 0 0 1-.598-2.004h2.18c.03.594.202 1.066.516 1.418.312.344.694.59 1.148.738a4.51 4.51 0 0 0 1.348.211c.592 0 1.088-.078 1.488-.234.406-.156.714-.371.926-.645.21-.273.316-.586.316-.937zm12.314-2.836v-.27c0-.914.132-1.762.398-2.543a6.048 6.048 0 0 1 1.148-2.051 5.115 5.115 0 0 1 1.818-1.359c.71-.328 1.508-.492 2.39-.492.89 0 1.692.164 2.402.492.72.32 1.328.773 1.828 1.359a5.909 5.909 0 0 1 1.16 2.051c.266.781.4 1.629.4 2.543v.27c0 .914-.134 1.762-.4 2.543a6.058 6.058 0 0 1-1.16 2.051 5.303 5.303 0 0 1-1.816 1.359c-.704.32-1.5.48-2.39.48-.892 0-1.692-.16-2.402-.48a5.433 5.433 0 0 1-1.83-1.359c-.5-.586-.882-1.27-1.148-2.051s-.398-1.629-.398-2.543zm2.168-.27v.27c0 .633.074 1.23.222 1.793.15.555.372 1.047.668 1.477.306.43.684.769 1.138 1.019.452.242.98.363 1.582.363.594 0 1.112-.121 1.558-.363.454-.25.828-.59 1.126-1.019.296-.43.518-.922.668-1.477.156-.563.234-1.16.234-1.793v-.27c0-.625-.078-1.215-.234-1.77a4.591 4.591 0 0 0-.68-1.488 3.23 3.23 0 0 0-1.126-1.031c-.444-.25-.968-.375-1.57-.375-.594 0-1.118.125-1.57.375-.446.25-.82.594-1.126 1.031-.296.43-.518.926-.668 1.488a6.845 6.845 0 0 0-.222 1.77zM462.424 24h-2.168V9.984c0-.914.164-1.684.492-2.309a3.309 3.309 0 0 1 1.442-1.43c.624-.328 1.368-.492 2.226-.492a6.09 6.09 0 0 1 1.5.188l-.116 1.77a3.643 3.643 0 0 0-.564-.082 7.72 7.72 0 0 0-.608-.023c-.462 0-.86.094-1.196.281-.328.18-.578.445-.75.797s-.258.785-.258 1.301v14.016zm2.696-12.68v1.664h-6.868V11.32h6.868zm15.596 0v1.664h-6.856V11.32h6.856zm-4.536-3.082h2.168v12.621c0 .43.066.754.2.973a.952.952 0 0 0 .514.434c.212.07.438.105.68.105.18 0 .368-.016.564-.047.202-.039.354-.07.456-.094l.012 1.77a5.029 5.029 0 0 1-.68.152 5.151 5.151 0 0 1-.996.082c-.532 0-1.02-.105-1.464-.316-.446-.211-.802-.563-1.068-1.055-.256-.5-.386-1.172-.386-2.016V8.238zM486.386 6v18h-2.168V6h2.168zm-.516 11.18-.902-.035a7.63 7.63 0 0 1 .388-2.402c.25-.742.6-1.387 1.054-1.934a4.695 4.695 0 0 1 3.714-1.723c.626 0 1.188.086 1.688.258.5.164.926.43 1.278.797.358.367.632.844.82 1.43.188.578.28 1.285.28 2.121v8.309h-2.178v-8.332c0-.664-.098-1.195-.294-1.594-.196-.406-.48-.699-.856-.879-.374-.188-.836-.281-1.382-.281-.54 0-1.032.113-1.476.34a3.549 3.549 0 0 0-1.138.938 4.724 4.724 0 0 0-.738 1.371 5.008 5.008 0 0 0-.258 1.617zm17.788 7.054c-.882 0-1.682-.148-2.402-.445a5.462 5.462 0 0 1-1.84-1.277 5.688 5.688 0 0 1-1.172-1.945 7.168 7.168 0 0 1-.41-2.461v-.492c0-1.031.152-1.949.458-2.754.304-.813.718-1.5 1.242-2.063s1.116-.988 1.782-1.277a5.112 5.112 0 0 1 2.062-.434c.906 0 1.688.156 2.344.469.664.313 1.206.75 1.628 1.313.422.555.734 1.211.938 1.969.202.75.304 1.57.304 2.461v.973h-9.468v-1.77h7.3v-.164a5.349 5.349 0 0 0-.352-1.641c-.194-.531-.506-.969-.936-1.313s-1.016-.516-1.758-.516a2.953 2.953 0 0 0-2.426 1.23c-.298.406-.528.902-.692 1.488s-.246 1.262-.246 2.027v.492c0 .602.082 1.168.246 1.699.172.524.418.984.738 1.383.328.398.724.711 1.184.937.468.227 1 .34 1.594.34.766 0 1.414-.156 1.946-.469a4.81 4.81 0 0 0 1.394-1.254l1.312 1.043c-.274.414-.62.809-1.042 1.184s-.942.68-1.56.914c-.608.234-1.332.352-2.168.352zM525.618 17.309h-4.558v-1.84h4.558c.882 0 1.598-.141 2.144-.422.548-.281.946-.672 1.196-1.172.258-.5.386-1.07.386-1.711 0-.586-.128-1.137-.386-1.652-.25-.516-.648-.93-1.196-1.242-.546-.32-1.262-.48-2.144-.48h-4.032v15.211h-2.262V6.938h6.294c1.288 0 2.378.223 3.27.668.89.445 1.566 1.063 2.026 1.852.462.781.692 1.676.692 2.684 0 1.094-.23 2.027-.692 2.801-.46.773-1.136 1.363-2.026 1.77-.892.398-1.982.598-3.27.598zm11.648-3.996v10.688h-2.168v-12.68h2.108l.06 1.992zm3.96-2.063-.012 2.016a3.06 3.06 0 0 0-.516-.07 5.367 5.367 0 0 0-.538-.023c-.5 0-.942.078-1.324.234a2.741 2.741 0 0 0-.974.656 3.173 3.173 0 0 0-.632 1.008 4.83 4.83 0 0 0-.292 1.266l-.61.352c0-.766.074-1.484.222-2.156a5.862 5.862 0 0 1 .716-1.781 3.5 3.5 0 0 1 1.218-1.219c.5-.297 1.094-.445 1.782-.445.156 0 .336.02.538.059.204.031.344.066.422.105zm5.32.07V24h-2.18V11.32h2.18zm-2.344-3.363c0-.352.106-.648.316-.891.22-.242.54-.363.962-.363.414 0 .73.121.948.363.226.242.34.539.34.891 0 .336-.114.625-.34.867-.218.234-.534.352-.948.352-.422 0-.742-.117-.962-.352a1.28 1.28 0 0 1-.316-.867zm10.64 14.086 3.468-10.723h2.216L555.966 24h-1.452l.328-1.957zm-2.894-10.723 3.574 10.781.246 1.898h-1.454l-4.594-12.68h2.228zm18.912 10.512v-6.527c0-.5-.102-.934-.304-1.301a1.992 1.992 0 0 0-.892-.867c-.398-.203-.89-.305-1.476-.305-.546 0-1.028.094-1.442.281a2.516 2.516 0 0 0-.96.738c-.226.305-.34.633-.34.984h-2.168c0-.453.118-.902.352-1.348s.57-.848 1.008-1.207a5.02 5.02 0 0 1 1.594-.867c.624-.219 1.32-.328 2.086-.328.922 0 1.734.156 2.436.469a3.646 3.646 0 0 1 1.664 1.418c.408.625.61 1.41.61 2.355v5.906c0 .422.036.871.106 1.348.078.477.192.887.34 1.23v.188h-2.262c-.11-.25-.196-.582-.258-.996a8.113 8.113 0 0 1-.094-1.172zm.376-5.519.022 1.523h-2.19a8.16 8.16 0 0 0-1.654.152c-.484.094-.89.238-1.218.434s-.578.441-.75.738a1.956 1.956 0 0 0-.258 1.019c0 .399.09.762.27 1.09s.45.59.808.785c.368.188.816.281 1.348.281.664 0 1.25-.141 1.758-.422s.91-.625 1.206-1.031c.306-.406.47-.801.494-1.184l.924 1.043c-.054.328-.202.691-.444 1.09s-.566.781-.974 1.148c-.398.359-.874.66-1.428.902-.548.234-1.164.352-1.852.352-.86 0-1.614-.168-2.262-.504-.64-.336-1.14-.785-1.5-1.348a3.563 3.563 0 0 1-.528-1.91c0-.68.134-1.277.4-1.793a3.452 3.452 0 0 1 1.148-1.301c.5-.352 1.102-.617 1.804-.797.704-.18 1.488-.27 2.356-.27h2.52zm11.236 6.14c.516 0 .992-.106 1.43-.316s.798-.5 1.078-.867a2.4 2.4 0 0 0 .48-1.277h2.064c-.04.75-.294 1.449-.762 2.098a5.212 5.212 0 0 1-1.816 1.559 5.274 5.274 0 0 1-2.474.586c-.952 0-1.784-.168-2.496-.504a4.97 4.97 0 0 1-1.758-1.383 6.187 6.187 0 0 1-1.042-2.016 8.527 8.527 0 0 1-.34-2.426v-.492c0-.852.114-1.656.34-2.414a6.163 6.163 0 0 1 1.042-2.027 4.97 4.97 0 0 1 1.758-1.383c.712-.336 1.544-.504 2.496-.504.992 0 1.86.203 2.602.609a4.468 4.468 0 0 1 1.746 1.641c.43.688.664 1.469.704 2.344h-2.064a3.11 3.11 0 0 0-.444-1.418 2.774 2.774 0 0 0-1.032-1.008c-.43-.258-.934-.387-1.512-.387-.664 0-1.222.133-1.676.398-.444.258-.8.609-1.066 1.055a4.893 4.893 0 0 0-.562 1.465 8.01 8.01 0 0 0-.164 1.629v.492c0 .555.054 1.102.164 1.641s.292 1.027.55 1.465c.266.437.622.789 1.066 1.055.454.258 1.016.387 1.688.387zm12.012.235 3.526-11.367h2.32l-5.086 14.637a7.791 7.791 0 0 1-.468 1.008c-.188.367-.43.715-.726 1.043a3.47 3.47 0 0 1-1.078.797c-.414.211-.91.316-1.488.316-.172 0-.392-.023-.656-.07a6.622 6.622 0 0 1-.564-.117l-.012-1.758c.064.008.16.016.294.023.14.016.238.023.292.023.492 0 .91-.066 1.254-.199a1.9 1.9 0 0 0 .868-.644c.242-.297.45-.707.62-1.231l.904-2.461zm-2.59-11.368 3.292 9.844.562 2.285-1.558.797-4.664-12.926h2.368zm24.888 5.989h-4.558v-1.84h4.558c.882 0 1.598-.141 2.144-.422.548-.281.946-.672 1.196-1.172.258-.5.386-1.07.386-1.711 0-.586-.128-1.137-.386-1.652-.25-.516-.648-.93-1.196-1.242-.546-.32-1.262-.48-2.144-.48h-4.032v15.211h-2.26V6.938h6.292c1.29 0 2.38.223 3.27.668s1.566 1.063 2.028 1.852c.46.781.69 1.676.69 2.684 0 1.094-.23 2.027-.69 2.801-.462.773-1.138 1.363-2.028 1.77-.89.398-1.98.598-3.27.598zm8.742.492v-.27c0-.914.132-1.762.398-2.543a6.048 6.048 0 0 1 1.148-2.051 5.125 5.125 0 0 1 1.816-1.359c.712-.328 1.508-.492 2.392-.492.89 0 1.69.164 2.402.492.718.32 1.328.773 1.828 1.359a5.94 5.94 0 0 1 1.16 2.051c.266.781.398 1.629.398 2.543v.27c0 .914-.132 1.762-.398 2.543s-.652 1.465-1.16 2.051a5.322 5.322 0 0 1-1.816 1.359c-.704.32-1.5.48-2.392.48-.89 0-1.69-.16-2.402-.48a5.445 5.445 0 0 1-1.828-1.359c-.5-.586-.882-1.27-1.148-2.051s-.398-1.629-.398-2.543zm2.168-.27v.27c0 .633.074 1.23.222 1.793.148.555.372 1.047.668 1.477.304.43.684.769 1.136 1.019.454.242.982.363 1.582.363.594 0 1.114-.121 1.56-.363.452-.25.828-.59 1.124-1.019.298-.43.52-.922.668-1.477.156-.563.234-1.16.234-1.793v-.27c0-.625-.078-1.215-.234-1.77a4.509 4.509 0 0 0-.68-1.488 3.224 3.224 0 0 0-1.124-1.031c-.446-.25-.97-.375-1.57-.375-.594 0-1.118.125-1.57.375-.446.25-.822.594-1.126 1.031-.296.43-.52.926-.668 1.488a6.845 6.845 0 0 0-.222 1.77zM643.1 6v18h-2.18V6h2.18zm6.796 5.32V24h-2.18V11.32h2.18zm-2.344-3.363c0-.352.106-.648.318-.891.218-.242.538-.363.96-.363.414 0 .73.121.95.363.226.242.34.539.34.891 0 .336-.114.625-.34.867-.22.234-.536.352-.95.352-.422 0-.742-.117-.96-.352a1.272 1.272 0 0 1-.318-.867zm11.86 14.496c.514 0 .992-.106 1.428-.316.438-.211.798-.5 1.08-.867.28-.375.44-.801.48-1.277h2.062c-.04.75-.292 1.449-.762 2.098-.46.641-1.066 1.16-1.816 1.559a5.266 5.266 0 0 1-2.472.586c-.954 0-1.786-.168-2.496-.504a4.934 4.934 0 0 1-1.758-1.383 6.153 6.153 0 0 1-1.044-2.016 8.527 8.527 0 0 1-.34-2.426v-.492c0-.852.114-1.656.34-2.414a6.13 6.13 0 0 1 1.044-2.027 4.934 4.934 0 0 1 1.758-1.383c.71-.336 1.542-.504 2.496-.504.992 0 1.858.203 2.6.609a4.441 4.441 0 0 1 1.746 1.641c.43.688.664 1.469.704 2.344H662.4a3.135 3.135 0 0 0-.446-1.418 2.774 2.774 0 0 0-1.032-1.008c-.428-.258-.932-.387-1.51-.387-.664 0-1.224.133-1.676.398a2.915 2.915 0 0 0-1.066 1.055 4.95 4.95 0 0 0-.564 1.465 8.153 8.153 0 0 0-.164 1.629v.492c0 .555.056 1.102.164 1.641.11.539.294 1.027.552 1.465.264.437.62.789 1.066 1.055.452.258 1.016.387 1.688.387zm12.01.235 3.528-11.367h2.32l-5.086 14.637a8.366 8.366 0 0 1-.468 1.008c-.188.367-.43.715-.728 1.043a3.447 3.447 0 0 1-1.078.797c-.414.211-.91.316-1.488.316-.172 0-.39-.023-.656-.07s-.454-.086-.562-.117l-.012-1.758c.062.008.16.016.292.023.142.016.238.023.294.023.492 0 .91-.066 1.254-.199.344-.125.632-.34.866-.644.242-.297.45-.707.622-1.231l.902-2.461zm-2.59-11.368 3.294 9.844.562 2.285-1.558.797-4.664-12.926h2.366z"/>
      <path d="M517.344 26.344h160.218v1.172H517.344v-1.172z"/>
    </symbol>
    <symbol id="icon-email-black-18dp-2" viewBox="0 0 24 32">
      <path d="M20 8H4c-1.1 0-1.99.9-1.99 2L2 22c0 1.1.9 2 2 2h16c1.1 0 2-.9 2-2V10c0-1.1-.9-2-2-2zm-.4 4.25-7.07 4.42c-.32.2-.74.2-1.06 0L4.4 12.25a.85.85 0 1 1 .9-1.44L12 15l6.7-4.19a.85.85 0 1 1 .9 1.44z"/>
    </symbol>
    <symbol id="icon-phone-black-18dp-2" viewBox="0 0 24 32">
      <path d="m19.635 18.487-2.451-.28a1.92 1.92 0 0 0-1.582.55l-1.775 1.775a14.514 14.514 0 0 1-6.359-6.359l1.785-1.785c.415-.415.618-.994.55-1.582l-.28-2.432a1.931 1.931 0 0 0-1.92-1.708H5.934c-1.09 0-1.997.907-1.93 1.997.511 8.24 7.102 14.821 15.332 15.332 1.09.068 1.997-.839 1.997-1.93v-1.669a1.913 1.913 0 0 0-1.698-1.911z"/>
    </symbol>
    <symbol id="icon-person-black-18dp-1" viewBox="0 0 32 32">
      <path d="M0 0h32v32H0V0z"/>
      <path d="M-389.333-421.333H976v1809.778H-389.333V-421.333z"/>
      <path d="M-389.333-293.333H976v768H-389.333v-768z"/>
      <path d="M-389.333-293.333H976v768H-389.333v-768z"/>
      <path d="M-91.941-18.486v11.375h-37.674v-11.375h37.674zm-32.909-59.403v70.778h-14.583v-70.778h14.583zm28 28.826v11.083h-32.764v-11.083h32.764zm4.86-28.826v11.424h-37.625v-11.424h37.625zm26.637 70.778H-79.45v-57.264c0-3.986.778-7.34 2.333-10.063 1.588-2.755 3.808-4.829 6.66-6.222 2.884-1.426 6.303-2.139 10.257-2.139 1.296 0 2.544.097 3.743.292a39.42 39.42 0 0 1 3.5.632l-.146 10.549c-.616-.162-1.264-.275-1.944-.34s-1.474-.097-2.382-.097c-1.685 0-3.127.292-4.326.875-1.167.551-2.058 1.377-2.674 2.479s-.924 2.447-.924 4.035V-7.11zm10.501-52.597v9.917h-32.424v-9.917h32.424zm27.171 52.597h-14.097v-57.264c0-3.986.778-7.34 2.333-10.063 1.588-2.755 3.808-4.829 6.66-6.222 2.884-1.426 6.303-2.139 10.257-2.139 1.296 0 2.544.097 3.743.292a39.42 39.42 0 0 1 3.5.632l-.146 10.549c-.616-.162-1.264-.275-1.944-.34s-1.474-.097-2.382-.097c-1.685 0-3.127.292-4.326.875-1.167.551-2.058 1.377-2.674 2.479s-.924 2.447-.924 4.035V-7.11zm10.5-52.597v9.917h-32.424v-9.917h32.424zM15.192-6.139c-4.083 0-7.745-.648-10.986-1.944-3.241-1.329-5.995-3.16-8.264-5.493-2.236-2.333-3.954-5.039-5.153-8.118-1.199-3.111-1.799-6.417-1.799-9.917v-1.945c0-3.986.567-7.632 1.701-10.937s2.755-6.174 4.861-8.604c2.139-2.431 4.731-4.294 7.778-5.59 3.046-1.329 6.481-1.993 10.306-1.993 3.727 0 7.032.616 9.917 1.847s5.299 2.981 7.243 5.25c1.977 2.268 3.468 4.991 4.472 8.167 1.005 3.144 1.507 6.644 1.507 10.5v5.833H-5.03v-9.333h28.049v-1.069c0-1.945-.357-3.678-1.07-5.201-.681-1.556-1.718-2.787-3.111-3.694s-3.176-1.361-5.347-1.361c-1.847 0-3.435.405-4.764 1.215s-2.414 1.945-3.257 3.403c-.81 1.458-1.426 3.176-1.847 5.153-.389 1.945-.583 4.083-.583 6.417v1.945c0 2.106.292 4.051.875 5.833.616 1.782 1.475 3.322 2.576 4.618a11.76 11.76 0 0 0 4.083 3.014c1.62.713 3.451 1.069 5.493 1.069 2.528 0 4.877-.486 7.049-1.458 2.204-1.005 4.099-2.511 5.687-4.521l6.805 7.389c-1.102 1.588-2.609 3.111-4.521 4.569-1.88 1.458-4.148 2.657-6.805 3.597-2.657.907-5.687 1.361-9.09 1.361zm53.276-10.937c1.718 0 3.241-.324 4.569-.972 1.329-.681 2.366-1.62 3.111-2.82.778-1.231 1.183-2.674 1.215-4.326h13.174c-.032 3.694-1.021 6.984-2.965 9.868-1.945 2.852-4.553 5.104-7.826 6.757-3.273 1.62-6.935 2.431-10.986 2.431-4.083 0-7.648-.681-10.694-2.042-3.014-1.361-5.526-3.241-7.535-5.639-2.009-2.431-3.516-5.25-4.521-8.458-1.005-3.241-1.507-6.708-1.507-10.403v-1.41c0-3.727.502-7.194 1.507-10.403 1.005-3.241 2.511-6.06 4.521-8.459 2.009-2.43 4.521-4.326 7.535-5.687s6.546-2.042 10.597-2.042c4.31 0 8.085.826 11.326 2.479 3.273 1.653 5.833 4.019 7.681 7.097 1.88 3.046 2.836 6.66 2.868 10.84H77.364c-.032-1.75-.405-3.338-1.118-4.764a8.066 8.066 0 0 0-3.014-3.403c-1.296-.875-2.9-1.313-4.813-1.313-2.042 0-3.711.438-5.007 1.313-1.296.843-2.301 2.009-3.014 3.5-.713 1.458-1.215 3.127-1.507 5.007a42.013 42.013 0 0 0-.389 5.833v1.41c0 2.042.13 4.002.389 5.882s.745 3.549 1.458 5.007c.745 1.458 1.766 2.609 3.062 3.451s2.982 1.264 5.056 1.264zm57.942-42.632v9.917H95.785v-9.917h30.625zm-23.041-12.979h14v49.729c0 1.523.195 2.69.583 3.5.421.81 1.037 1.377 1.847 1.701.81.292 1.831.438 3.062.438a24.8 24.8 0 0 0 2.333-.097 29.395 29.395 0 0 0 1.799-.292l.049 10.306c-1.199.389-2.495.697-3.889.924s-2.933.34-4.618.34c-3.079 0-5.769-.502-8.07-1.507-2.268-1.037-4.019-2.69-5.25-4.958s-1.847-5.25-1.847-8.944v-51.139zm47.783 12.979v52.597h-14.049v-52.597h14.049zm-14.924-13.709c0-2.042.713-3.727 2.139-5.055s3.338-1.993 5.736-1.993c2.366 0 4.262.664 5.687 1.993 1.458 1.329 2.188 3.014 2.188 5.055s-.729 3.727-2.188 5.056c-1.426 1.329-3.322 1.993-5.687 1.993-2.398 0-4.31-.664-5.736-1.993s-2.139-3.014-2.139-5.056zm46.373 56.098 11.668-42.389H208.9L191.158-7.111h-8.848l.292-10.208zm-8.021-42.389 11.715 42.437.244 10.16h-8.896L159.9-59.708h14.681zm66.11 53.569c-4.084 0-7.746-.648-10.987-1.944-3.241-1.329-5.995-3.16-8.263-5.493-2.236-2.333-3.954-5.039-5.154-8.118-1.198-3.111-1.797-6.417-1.797-9.917v-1.945c0-3.986.567-7.632 1.701-10.937s2.754-6.174 4.86-8.604c2.139-2.431 4.731-4.294 7.778-5.59 3.045-1.329 6.482-1.993 10.306-1.993 3.726 0 7.033.616 9.916 1.847s5.298 2.981 7.243 5.25c1.977 2.268 3.468 4.991 4.473 8.167 1.004 3.144 1.506 6.644 1.506 10.5v5.833h-41.804v-9.333h28.048v-1.069c0-1.945-.356-3.678-1.068-5.201-.681-1.556-1.719-2.787-3.111-3.694-1.394-.908-3.177-1.361-5.348-1.361-1.847 0-3.436.405-4.764 1.215s-2.414 1.945-3.257 3.403c-.811 1.458-1.426 3.176-1.847 5.153-.389 1.945-.583 4.083-.583 6.417v1.945c0 2.106.292 4.051.875 5.833.615 1.782 1.474 3.322 2.576 4.618a11.764 11.764 0 0 0 4.084 3.014c1.621.713 3.452 1.069 5.493 1.069 2.528 0 4.876-.486 7.049-1.458 2.203-1.005 4.1-2.511 5.687-4.521l6.805 7.389c-1.102 1.588-2.608 3.111-4.521 4.569-1.879 1.458-4.148 2.657-6.805 3.597-2.658.907-5.687 1.361-9.09 1.361zm96.051-19.493c0-1.264-.196-2.398-.583-3.403-.357-1.037-1.038-1.977-2.043-2.82-1.004-.875-2.414-1.734-4.229-2.576-1.813-.843-4.164-1.718-7.047-2.625a89.21 89.21 0 0 1-9.14-3.5c-2.852-1.296-5.38-2.803-7.584-4.521-2.171-1.75-3.888-3.775-5.152-6.076-1.232-2.301-1.847-4.975-1.847-8.021 0-2.949.647-5.623 1.945-8.021 1.296-2.431 3.111-4.505 5.444-6.222 2.334-1.75 5.088-3.095 8.263-4.035 3.209-.94 6.725-1.41 10.549-1.41 5.218 0 9.771.94 13.66 2.82 3.888 1.88 6.901 4.456 9.042 7.729 2.171 3.273 3.257 7.016 3.257 11.229h-14.487c0-2.074-.437-3.889-1.312-5.444-.843-1.588-2.139-2.836-3.89-3.743-1.717-.908-3.888-1.361-6.514-1.361-2.528 0-4.633.389-6.318 1.167-1.685.745-2.949 1.766-3.792 3.062-.843 1.264-1.264 2.69-1.264 4.278 0 1.199.292 2.285.875 3.257.615.972 1.524 1.88 2.722 2.722 1.2.843 2.674 1.636 4.425 2.382 1.749.745 3.774 1.474 6.076 2.188 3.856 1.167 7.243 2.479 10.158 3.937 2.949 1.458 5.413 3.095 7.39 4.91s3.467 3.873 4.471 6.174 1.508 4.91 1.508 7.826c0 3.079-.599 5.833-1.799 8.264-1.198 2.431-2.932 4.488-5.202 6.174-2.268 1.685-4.974 2.965-8.117 3.84s-6.66 1.313-10.549 1.313a40.04 40.04 0 0 1-10.354-1.361c-3.403-.94-6.498-2.35-9.284-4.229-2.756-1.88-4.958-4.278-6.612-7.194s-2.48-6.368-2.48-10.354h14.633c0 2.204.34 4.067 1.02 5.59s1.637 2.755 2.868 3.694c1.264.94 2.756 1.62 4.473 2.042 1.749.421 3.662.632 5.735.632 2.528 0 4.603-.356 6.222-1.07 1.653-.713 2.869-1.701 3.646-2.965.811-1.264 1.216-2.69 1.216-4.278zm23.38-7.243v-1.021c0-3.857.551-7.405 1.653-10.646 1.102-3.273 2.706-6.109 4.812-8.507s4.699-4.262 7.778-5.59c3.079-1.361 6.612-2.042 10.597-2.042s7.534.681 10.645 2.042c3.111 1.329 5.721 3.192 7.826 5.59 2.14 2.398 3.76 5.234 4.862 8.507 1.102 3.241 1.652 6.789 1.652 10.646v1.021c0 3.824-.549 7.373-1.652 10.646-1.102 3.241-2.722 6.076-4.862 8.507-2.105 2.398-4.699 4.262-7.778 5.59-3.077 1.329-6.61 1.993-10.597 1.993-3.986 0-7.534-.664-10.645-1.993-3.079-1.329-5.687-3.192-7.826-5.59-2.107-2.431-3.71-5.266-4.812-8.507-1.102-3.273-1.653-6.822-1.653-10.646zm14-1.021v1.021c0 2.204.194 4.261.583 6.174s1.004 3.597 1.847 5.055c.875 1.426 2.011 2.544 3.403 3.354 1.394.81 3.095 1.215 5.104 1.215 1.945 0 3.614-.405 5.008-1.215s2.512-1.928 3.355-3.354c.843-1.458 1.458-3.143 1.847-5.055.421-1.912.631-3.97.631-6.174v-1.021c0-2.139-.21-4.148-.631-6.028-.389-1.912-1.022-3.597-1.897-5.056-.843-1.491-1.961-2.657-3.353-3.5-1.394-.843-3.079-1.264-5.056-1.264s-3.662.421-5.056 1.264c-1.362.843-2.48 2.009-3.355 3.5-.843 1.458-1.458 3.143-1.847 5.056-.389 1.88-.583 3.889-.583 6.028zm61.2-47.882v74.667h-14.05v-74.667h14.05zm44.672 62.077v-40.007h14v52.597h-13.175l-.825-12.59zm1.555-10.792 4.132-.097c0 3.5-.405 6.757-1.216 9.771-.809 2.981-2.025 5.574-3.646 7.778-1.62 2.171-3.66 3.873-6.124 5.104-2.462 1.199-5.364 1.799-8.7 1.799-2.56 0-4.926-.356-7.099-1.069-2.139-.745-3.986-1.896-5.541-3.451-1.524-1.588-2.722-3.613-3.596-6.076-.843-2.495-1.264-5.493-1.264-8.993v-33.979h14v34.076c0 1.556.178 2.868.535 3.938.388 1.069.923 1.944 1.604 2.625s1.474 1.167 2.382 1.458c.939.292 1.977.438 3.111.438 2.884 0 5.152-.583 6.805-1.75 1.685-1.167 2.868-2.755 3.548-4.764.713-2.042 1.07-4.31 1.07-6.806zm50.893-29.215v9.917h-30.624v-9.917h30.624zm-23.042-12.979h14v49.729c0 1.523.196 2.69.585 3.5.421.81 1.036 1.377 1.847 1.701.809.292 1.831.438 3.061.438.876 0 1.653-.032 2.334-.097a29.524 29.524 0 0 0 1.799-.292l.048 10.306c-1.2.389-2.496.697-3.89.924-1.392.227-2.932.34-4.617.34-3.079 0-5.769-.502-8.069-1.507-2.268-1.037-4.02-2.69-5.25-4.958-1.232-2.269-1.849-5.25-1.849-8.944v-51.139zm47.783 12.979v52.597h-14.048v-52.597h14.048zM542.26-73.417c0-2.042.713-3.727 2.139-5.055s3.337-1.993 5.735-1.993c2.366 0 4.263.664 5.689 1.993 1.458 1.329 2.187 3.014 2.187 5.055s-.729 3.727-2.187 5.056c-1.426 1.329-3.323 1.993-5.689 1.993-2.398 0-4.309-.664-5.735-1.993s-2.139-3.014-2.139-5.056zm26.247 40.542v-1.021c0-3.857.551-7.405 1.653-10.646 1.102-3.273 2.706-6.109 4.812-8.507s4.699-4.262 7.778-5.59c3.079-1.361 6.612-2.042 10.597-2.042s7.534.681 10.645 2.042c3.111 1.329 5.721 3.192 7.828 5.59 2.139 2.398 3.758 5.234 4.86 8.507 1.102 3.241 1.653 6.789 1.653 10.646v1.021c0 3.824-.551 7.373-1.653 10.646-1.102 3.241-2.722 6.076-4.86 8.507-2.107 2.398-4.7 4.262-7.778 5.59-3.079 1.329-6.612 1.993-10.597 1.993-3.988 0-7.536-.664-10.647-1.993-3.077-1.329-5.687-3.192-7.826-5.59-2.107-2.431-3.71-5.266-4.812-8.507-1.102-3.273-1.653-6.822-1.653-10.646zm14-1.021v1.021c0 2.204.196 4.261.583 6.174.389 1.912 1.006 3.597 1.849 5.055.875 1.426 2.009 2.544 3.403 3.354 1.392.81 3.093 1.215 5.104 1.215 1.943 0 3.612-.405 5.006-1.215s2.512-1.928 3.355-3.354c.843-1.458 1.458-3.143 1.847-5.055.421-1.912.631-3.97.631-6.174v-1.021c0-2.139-.21-4.148-.631-6.028-.389-1.912-1.02-3.597-1.897-5.056-.841-1.491-1.959-2.657-3.353-3.5s-3.079-1.264-5.056-1.264-3.662.421-5.056 1.264c-1.36.843-2.478 2.009-3.353 3.5-.843 1.458-1.46 3.143-1.849 5.056-.388 1.88-.583 3.889-.583 6.028zm60.129-14.583v41.368h-14v-52.597h13.125l.875 11.229zm-2.04 13.222h-3.792c0-3.889.503-7.389 1.508-10.5 1.004-3.143 2.414-5.817 4.229-8.021 1.815-2.236 3.97-3.937 6.464-5.104 2.528-1.199 5.348-1.799 8.459-1.799 2.464 0 4.716.356 6.757 1.069a12.914 12.914 0 0 1 5.25 3.403c1.492 1.556 2.626 3.614 3.403 6.174.811 2.56 1.216 5.687 1.216 9.382v33.542h-14.098v-33.59c0-2.333-.324-4.148-.972-5.444-.647-1.296-1.604-2.204-2.868-2.722-1.232-.551-2.754-.826-4.569-.826-1.881 0-3.516.373-4.91 1.118-1.362.745-2.496 1.782-3.403 3.111-.875 1.296-1.54 2.819-1.993 4.569s-.681 3.63-.681 5.639zm74.567 13.611c0-1.005-.292-1.912-.875-2.722s-1.669-1.556-3.257-2.236c-1.556-.713-3.808-1.361-6.757-1.945-2.658-.583-5.136-1.313-7.436-2.188-2.268-.907-4.245-1.993-5.931-3.257-1.653-1.264-2.949-2.755-3.89-4.472-.939-1.75-1.41-3.743-1.41-5.979 0-2.204.471-4.278 1.41-6.222.972-1.945 2.35-3.662 4.132-5.153 1.815-1.523 4.02-2.706 6.612-3.549 2.626-.875 5.575-1.313 8.848-1.313 4.569 0 8.491.729 11.764 2.188 3.305 1.458 5.833 3.468 7.584 6.028 1.781 2.528 2.672 5.412 2.672 8.653h-14c0-1.361-.292-2.577-.875-3.646-.551-1.102-1.426-1.961-2.624-2.576-1.168-.648-2.69-.972-4.571-.972-1.556 0-2.9.275-4.034.826-1.134.519-2.009 1.231-2.626 2.139a5.146 5.146 0 0 0-.875 2.917c0 .81.162 1.539.487 2.188.356.616.923 1.183 1.701 1.701.777.519 1.781 1.005 3.013 1.458 1.264.421 2.82.81 4.667 1.167 3.792.778 7.179 1.799 10.16 3.063 2.981 1.231 5.348 2.917 7.097 5.056 1.749 2.107 2.624 4.877 2.624 8.312 0 2.333-.517 4.472-1.556 6.417-1.036 1.944-2.526 3.646-4.471 5.104-1.945 1.426-4.277 2.544-7.001 3.354-2.69.778-5.719 1.167-9.09 1.167-4.894 0-9.042-.875-12.444-2.625-3.371-1.75-5.931-3.97-7.68-6.66-1.717-2.722-2.576-5.509-2.576-8.361h13.269c.066 1.912.551 3.451 1.46 4.618a7.964 7.964 0 0 0 3.548 2.528c1.458.519 3.029.778 4.715.778 1.815 0 3.323-.243 4.521-.729 1.2-.519 2.107-1.199 2.722-2.042.649-.875.972-1.88.972-3.014zM-96.075 99.556h-14.097V42.292c0-3.986.778-7.34 2.333-10.063 1.588-2.755 3.808-4.829 6.66-6.222 2.884-1.426 6.303-2.139 10.257-2.139 1.296 0 2.544.097 3.743.292a39.42 39.42 0 0 1 3.5.632l-.146 10.549c-.616-.162-1.264-.275-1.945-.34s-1.475-.097-2.382-.097c-1.685 0-3.127.292-4.326.875-1.167.551-2.058 1.377-2.674 2.479s-.924 2.447-.924 4.035v57.264zm10.5-52.598v9.917h-32.424v-9.917h32.424zm7.096 26.834v-1.021c0-3.857.551-7.405 1.653-10.646 1.102-3.273 2.706-6.109 4.812-8.507s4.699-4.262 7.778-5.59c3.079-1.361 6.611-2.042 10.597-2.042s7.535.681 10.646 2.042c3.111 1.329 5.72 3.192 7.827 5.59 2.139 2.398 3.759 5.234 4.861 8.507 1.102 3.241 1.653 6.789 1.653 10.646v1.021c0 3.824-.551 7.373-1.653 10.646-1.102 3.241-2.722 6.076-4.861 8.507-2.106 2.398-4.699 4.262-7.778 5.59s-6.611 1.993-10.597 1.993c-3.986 0-7.535-.664-10.646-1.993-3.079-1.329-5.687-3.192-7.826-5.59-2.106-2.43-3.711-5.266-4.812-8.507-1.102-3.273-1.653-6.822-1.653-10.646zm14-1.021v1.021c0 2.204.195 4.261.583 6.174s1.005 3.597 1.847 5.055c.875 1.426 2.009 2.544 3.403 3.354s3.095 1.215 5.104 1.215c1.944 0 3.613-.405 5.007-1.215s2.511-1.928 3.354-3.354c.843-1.458 1.458-3.143 1.847-5.055.421-1.912.632-3.97.632-6.174v-1.021c0-2.139-.211-4.148-.632-6.028-.389-1.912-1.021-3.597-1.896-5.056-.843-1.491-1.961-2.657-3.354-3.5s-3.079-1.264-5.055-1.264c-1.977 0-3.662.421-5.056 1.264-1.361.843-2.479 2.009-3.354 3.5-.843 1.458-1.458 3.143-1.847 5.056-.389 1.88-.583 3.889-.583 6.028zm60.421-14.34v41.125h-14V46.959h13.174l.826 11.472zm15.847-11.813-.243 12.979a34.09 34.09 0 0 0-2.479-.243 25.281 25.281 0 0 0-2.576-.146c-1.977 0-3.694.259-5.153.778-1.426.486-2.625 1.215-3.597 2.188-.94.972-1.653 2.155-2.139 3.549-.454 1.393-.713 2.981-.778 4.764l-2.819-.875c0-3.403.34-6.53 1.021-9.382.681-2.884 1.669-5.396 2.965-7.535 1.329-2.139 2.949-3.792 4.861-4.958s4.1-1.75 6.563-1.75c.778 0 1.572.065 2.382.194.81.097 1.475.243 1.993.438zm45.983-17.84L72.55 61.056l14.778-32.278h15.896L79.939 73.792v25.764H65.161V73.792L41.828 28.778h15.945zm47.588 45.014v-1.021c0-3.857.551-7.405 1.653-10.646 1.102-3.273 2.706-6.109 4.812-8.507s4.699-4.262 7.778-5.59c3.079-1.361 6.611-2.042 10.597-2.042s7.535.681 10.646 2.042c3.111 1.329 5.72 3.192 7.827 5.59 2.139 2.398 3.759 5.234 4.861 8.507 1.102 3.241 1.653 6.789 1.653 10.646v1.021c0 3.824-.551 7.373-1.653 10.646-1.102 3.241-2.722 6.076-4.861 8.507-2.107 2.398-4.699 4.262-7.778 5.59s-6.611 1.993-10.597 1.993-7.535-.664-10.646-1.993c-3.079-1.329-5.687-3.192-7.826-5.59-2.106-2.43-3.711-5.266-4.812-8.507-1.102-3.273-1.653-6.822-1.653-10.646zm14-1.021v1.021c0 2.204.195 4.261.583 6.174s1.005 3.597 1.847 5.055c.875 1.426 2.009 2.544 3.403 3.354s3.095 1.215 5.104 1.215c1.945 0 3.613-.405 5.007-1.215s2.512-1.928 3.354-3.354c.843-1.458 1.458-3.143 1.847-5.055.421-1.912.632-3.97.632-6.174v-1.021c0-2.139-.211-4.148-.632-6.028-.389-1.912-1.021-3.597-1.896-5.056-.843-1.491-1.961-2.657-3.354-3.5s-3.079-1.264-5.056-1.264c-1.977 0-3.662.421-5.055 1.264-1.361.843-2.479 2.009-3.354 3.5-.843 1.458-1.458 3.143-1.847 5.056-.389 1.88-.583 3.889-.583 6.028zm77.532 14.194V46.958h14v52.597h-13.173l-.827-12.59zm1.556-10.791 4.132-.097c0 3.5-.404 6.757-1.214 9.771-.811 2.981-2.027 5.574-3.646 7.778-1.62 2.171-3.662 3.873-6.124 5.104-2.464 1.199-5.364 1.799-8.702 1.799-2.56 0-4.926-.356-7.097-1.07-2.139-.745-3.986-1.896-5.542-3.451-1.523-1.588-2.722-3.613-3.597-6.076-.843-2.495-1.264-5.493-1.264-8.993V46.96h13.999v34.076c0 1.556.18 2.868.535 3.938.389 1.069.924 1.944 1.605 2.625a5.853 5.853 0 0 0 2.38 1.459c.94.292 1.977.437 3.111.437 2.885 0 5.154-.583 6.807-1.75 1.684-1.167 2.868-2.755 3.548-4.764.713-2.042 1.068-4.31 1.068-6.805zm39.131-17.743v41.125h-14V46.959h13.173l.827 11.472zm15.847-11.813-.244 12.979a34.17 34.17 0 0 0-2.478-.243 25.287 25.287 0 0 0-2.578-.146c-1.977 0-3.694.259-5.152.778-1.426.486-2.626 1.215-3.596 2.188-.94.972-1.653 2.155-2.14 3.549-.453 1.393-.713 2.981-.777 4.764l-2.82-.875c0-3.403.34-6.53 1.02-9.382.681-2.884 1.669-5.396 2.965-7.535 1.33-2.139 2.949-3.792 4.862-4.958 1.911-1.167 4.1-1.75 6.562-1.75.777 0 1.572.065 2.382.194.811.097 1.474.243 1.993.438zm63.968 21.875h-18.181l-.096-10.014h15.264c2.69 0 4.892-.34 6.61-1.021 1.719-.713 2.999-1.734 3.842-3.062.875-1.361 1.312-3.014 1.312-4.958 0-2.204-.421-3.986-1.264-5.347-.811-1.361-2.091-2.349-3.84-2.965-1.717-.616-3.938-.924-6.66-.924h-10.112v59.354h-14.583V28.778h24.695c4.116 0 7.794.389 11.035 1.167 3.273.778 6.044 1.961 8.313 3.548s4.002 3.597 5.2 6.028c1.2 2.398 1.799 5.25 1.799 8.556 0 2.917-.665 5.606-1.993 8.069-1.296 2.463-3.355 4.472-6.174 6.028-2.786 1.556-6.432 2.414-10.937 2.576l-4.229 3.743zm-.631 31.063h-21.536l5.689-11.375h15.847c2.56 0 4.649-.405 6.27-1.215 1.62-.843 2.82-1.977 3.596-3.403.779-1.426 1.168-3.063 1.168-4.91 0-2.074-.357-3.873-1.07-5.396-.681-1.523-1.783-2.69-3.305-3.5-1.524-.843-3.532-1.264-6.028-1.264h-14.048l.096-10.014h17.5l3.355 3.938c4.309-.065 7.778.697 10.402 2.285 2.658 1.556 4.587 3.581 5.785 6.076 1.232 2.495 1.847 5.169 1.847 8.021 0 4.537-.988 8.361-2.965 11.472-1.977 3.079-4.876 5.396-8.7 6.951-3.792 1.556-8.427 2.333-13.902 2.333zm68.734-12.591V46.958h14v52.597h-13.175l-.825-12.59zm1.555-10.791 4.132-.097c0 3.5-.405 6.757-1.216 9.771-.811 2.981-2.025 5.574-3.646 7.778-1.62 2.171-3.66 3.873-6.124 5.104-2.462 1.199-5.364 1.799-8.7 1.799-2.562 0-4.926-.356-7.099-1.07-2.139-.745-3.986-1.896-5.541-3.451-1.524-1.588-2.722-3.613-3.596-6.076-.843-2.495-1.264-5.493-1.264-8.993V46.96h14v34.076c0 1.556.178 2.868.535 3.938.388 1.069.923 1.944 1.604 2.625s1.474 1.167 2.382 1.459c.939.292 1.977.437 3.111.437 2.884 0 5.152-.583 6.805-1.75 1.685-1.167 2.868-2.755 3.548-4.764.713-2.042 1.07-4.31 1.07-6.805zm53.567 8.847c0-1.005-.292-1.912-.875-2.722s-1.669-1.556-3.257-2.236c-1.556-.713-3.808-1.361-6.757-1.945-2.658-.583-5.136-1.313-7.436-2.188-2.268-.907-4.245-1.993-5.931-3.257-1.653-1.264-2.949-2.755-3.89-4.472-.939-1.75-1.41-3.743-1.41-5.979 0-2.204.471-4.278 1.41-6.222.972-1.945 2.35-3.662 4.132-5.153 1.815-1.523 4.02-2.706 6.612-3.549 2.626-.875 5.575-1.313 8.848-1.313 4.569 0 8.491.729 11.764 2.188 3.305 1.458 5.833 3.468 7.584 6.028 1.781 2.528 2.672 5.412 2.672 8.653h-14c0-1.361-.292-2.577-.875-3.646-.551-1.102-1.426-1.961-2.624-2.576-1.168-.648-2.69-.972-4.571-.972-1.556 0-2.9.275-4.034.826-1.134.519-2.009 1.231-2.626 2.139a5.146 5.146 0 0 0-.875 2.917c0 .81.162 1.539.487 2.188.356.616.923 1.183 1.701 1.701.777.519 1.781 1.005 3.013 1.458 1.264.421 2.82.81 4.667 1.167 3.792.778 7.179 1.799 10.16 3.063 2.981 1.231 5.348 2.917 7.097 5.056 1.749 2.106 2.626 4.877 2.626 8.312 0 2.333-.519 4.472-1.556 6.417-1.038 1.945-2.528 3.646-4.473 5.104-1.945 1.426-4.277 2.544-7.001 3.354-2.69.778-5.719 1.167-9.09 1.167-4.892 0-9.042-.875-12.444-2.625-3.371-1.75-5.931-3.97-7.68-6.66-1.717-2.722-2.576-5.509-2.576-8.361h13.269c.066 1.912.551 3.451 1.46 4.618a7.964 7.964 0 0 0 3.548 2.528c1.458.519 3.029.778 4.715.778 1.815 0 3.323-.243 4.521-.729 1.2-.519 2.107-1.199 2.722-2.042.649-.875.972-1.88.972-3.014zm39.47-38.063v52.597h-14.048V46.958h14.048zM465.166 33.25c0-2.042.713-3.727 2.139-5.055s3.337-1.993 5.735-1.993c2.366 0 4.263.664 5.689 1.993 1.458 1.329 2.187 3.014 2.187 5.055s-.729 3.727-2.187 5.056c-1.426 1.329-3.323 1.993-5.689 1.993-2.398 0-4.309-.664-5.735-1.993s-2.139-3.014-2.139-5.056zm42.192 24.938v41.368h-14V46.959h13.125l.875 11.229zm-2.041 13.222h-3.792c0-3.889.501-7.389 1.506-10.5 1.006-3.143 2.416-5.817 4.229-8.021 1.815-2.236 3.97-3.937 6.466-5.104 2.528-1.199 5.348-1.799 8.459-1.799 2.462 0 4.715.356 6.757 1.069a12.94 12.94 0 0 1 5.25 3.403c1.49 1.556 2.624 3.614 3.403 6.174.811 2.56 1.214 5.687 1.214 9.382v33.542h-14.096v-33.59c0-2.333-.325-4.148-.972-5.444-.649-1.296-1.604-2.204-2.868-2.722-1.232-.551-2.756-.826-4.571-.826-1.879 0-3.516.373-4.908 1.118-1.362.745-2.496 1.782-3.403 3.111-.876 1.296-1.54 2.819-1.995 4.569-.453 1.75-.679 3.63-.679 5.639zm70.338 29.118c-4.084 0-7.746-.648-10.987-1.945-3.241-1.329-5.995-3.16-8.263-5.493-2.236-2.333-3.954-5.039-5.154-8.118-1.198-3.111-1.797-6.417-1.797-9.917V73.11c0-3.986.567-7.632 1.701-10.937s2.754-6.174 4.86-8.604c2.139-2.431 4.731-4.294 7.778-5.59 3.047-1.329 6.482-1.993 10.306-1.993 3.726 0 7.033.616 9.916 1.847s5.3 2.981 7.243 5.25c1.977 2.268 3.468 4.991 4.473 8.167 1.004 3.144 1.508 6.644 1.508 10.5v5.833h-41.806V68.25h28.048v-1.069c0-1.945-.356-3.678-1.068-5.201-.681-1.556-1.717-2.787-3.111-3.694s-3.177-1.361-5.348-1.361c-1.847 0-3.435.405-4.764 1.215-1.328.81-2.414 1.945-3.257 3.403-.811 1.458-1.426 3.176-1.847 5.153-.389 1.945-.583 4.083-.583 6.417v1.945c0 2.106.292 4.051.875 5.833.617 1.782 1.476 3.322 2.576 4.618a11.764 11.764 0 0 0 4.084 3.014c1.621.713 3.452 1.069 5.493 1.069 2.528 0 4.878-.486 7.049-1.458 2.204-1.005 4.1-2.511 5.687-4.521l6.805 7.389c-1.102 1.588-2.608 3.111-4.521 4.569-1.879 1.458-4.148 2.657-6.805 3.597-2.658.908-5.687 1.361-9.09 1.361zm59.984-15.507c0-1.005-.292-1.912-.875-2.722s-1.669-1.556-3.257-2.236c-1.556-.713-3.808-1.361-6.757-1.945-2.658-.583-5.136-1.313-7.438-2.188-2.268-.907-4.245-1.993-5.931-3.257-1.652-1.264-2.948-2.755-3.888-4.472-.94-1.75-1.41-3.743-1.41-5.979 0-2.204.469-4.278 1.41-6.222.972-1.945 2.35-3.662 4.132-5.153 1.815-1.523 4.02-2.706 6.612-3.549 2.624-.875 5.573-1.313 8.846-1.313 4.571 0 8.492.729 11.765 2.188 3.305 1.458 5.833 3.468 7.582 6.028 1.783 2.528 2.674 5.412 2.674 8.653h-14c0-1.361-.292-2.577-.875-3.646-.551-1.102-1.426-1.961-2.626-2.576-1.166-.648-2.69-.972-4.569-.972-1.556 0-2.9.275-4.034.826-1.134.519-2.011 1.231-2.626 2.139a5.146 5.146 0 0 0-.875 2.917c0 .81.162 1.539.485 2.188.357.616.924 1.183 1.701 1.701.779.519 1.783 1.005 3.015 1.458 1.264.421 2.82.81 4.667 1.167 3.79.778 7.177 1.799 10.158 3.063 2.983 1.231 5.348 2.917 7.099 5.056 1.749 2.106 2.624 4.877 2.624 8.312 0 2.333-.517 4.472-1.556 6.417-1.036 1.945-2.528 3.646-4.471 5.104-1.945 1.426-4.279 2.544-7.001 3.354-2.69.778-5.719 1.167-9.09 1.167-4.894 0-9.042-.875-12.444-2.625-3.371-1.75-5.931-3.97-7.68-6.66-1.719-2.722-2.578-5.509-2.578-8.361h13.271c.066 1.912.551 3.451 1.458 4.618a7.965 7.965 0 0 0 3.55 2.528c1.458.519 3.029.778 4.715.778 1.815 0 3.321-.243 4.521-.729 1.198-.519 2.107-1.199 2.722-2.042.649-.875.972-1.88.972-3.014zm53.131 0a4.542 4.542 0 0 0-.876-2.722c-.583-.81-1.668-1.556-3.257-2.236-1.556-.713-3.806-1.361-6.756-1.945-2.658-.583-5.138-1.313-7.438-2.188-2.268-.907-4.245-1.993-5.931-3.257-1.653-1.264-2.949-2.755-3.888-4.472-.94-1.75-1.41-3.743-1.41-5.979 0-2.204.469-4.278 1.41-6.222.972-1.945 2.348-3.662 4.132-5.153 1.815-1.523 4.018-2.706 6.612-3.549 2.624-.875 5.573-1.313 8.846-1.313 4.569 0 8.491.729 11.764 2.188 3.307 1.458 5.835 3.468 7.584 6.028 1.783 2.528 2.674 5.412 2.674 8.653h-14c0-1.361-.292-2.577-.875-3.646-.551-1.102-1.426-1.961-2.626-2.576-1.166-.648-2.69-.972-4.569-.972-1.556 0-2.901.275-4.036.826-1.134.519-2.009 1.231-2.624 2.139a5.146 5.146 0 0 0-.875 2.917c0 .81.162 1.539.485 2.188.357.616.924 1.183 1.701 1.701.779.519 1.783 1.005 3.013 1.458 1.264.421 2.82.81 4.667 1.167 3.792.778 7.179 1.799 10.16 3.063 2.981 1.231 5.348 2.917 7.097 5.056 1.751 2.106 2.626 4.877 2.626 8.312 0 2.333-.519 4.472-1.556 6.417s-2.528 3.646-4.473 5.104c-1.943 1.426-4.277 2.544-6.999 3.354-2.69.778-5.721 1.167-9.09 1.167-4.894 0-9.042-.875-12.444-2.625-3.371-1.75-5.931-3.97-7.682-6.66-1.717-2.722-2.576-5.509-2.576-8.361h13.271c.064 1.912.551 3.451 1.458 4.618a7.97 7.97 0 0 0 3.548 2.528c1.46.519 3.031.778 4.716.778 1.813 0 3.321-.243 4.521-.729 1.198-.519 2.105-1.199 2.722-2.042.647-.875.972-1.88.972-3.014z"/>
      <path d="M-389.333-421.333H976v1809.778H-389.333V-421.333z"/>
      <path d="M-62.222-250.667h711.111a7.111 7.111 0 0 1 7.111 7.111v1024a7.111 7.111 0 0 1-7.111 7.111H-62.222a7.111 7.111 0 0 1-7.111-7.111v-1024a7.111 7.111 0 0 1 7.111-7.111z"/>
      <path stroke-width="1.778" d="M-21.333-18.667h625.778a6.222 6.222 0 0 1 6.222 6.222v56.889a6.222 6.222 0 0 1-6.222 6.222H-21.333a6.222 6.222 0 0 1-6.222-6.222v-56.889a6.222 6.222 0 0 1 6.222-6.222z"/>
      <path d="M16 16c2.947 0 5.333-2.387 5.333-5.333S18.946 5.334 16 5.334c-2.947 0-5.333 2.387-5.333 5.333S13.054 16 16 16zm0 2.667c-3.56 0-10.667 1.787-10.667 5.333v1.333c0 .733.6 1.333 1.333 1.333h18.667c.733 0 1.333-.6 1.333-1.333V24c0-3.547-7.107-5.333-10.667-5.333z"/>
    </symbol>



 <symbol id="icon-close-black-button" viewBox="0 0 32 32">
      <path d="M32 3.223 28.777 0 16 12.777 3.223 0 0 3.223 12.777 16 0 28.777 3.223 32 16 19.223 28.777 32 32 28.777 19.223 16 32 3.223z"/>
    </symbol>
    <symbol id="icon-Checkbox-1" viewBox="0 0 32 32">
      <path stroke-width="2" d="M4 1h24a3 3 0 0 1 3 3v24a3 3 0 0 1-3 3H4a3 3 0 0 1-3-3V4a3 3 0 0 1 3-3z"/>
    </symbol>
    <symbol id="icon-Frame-name" viewBox="0 0 32 32">
      <path d="M12 16c2.21 0 4-1.79 4-4s-1.79-4-4-4-4 1.79-4 4 1.79 4 4 4zm0 2c-2.67 0-8 1.34-8 4v1c0 .55.45 1 1 1h14c.55 0 1-.45 1-1v-1c0-2.66-5.33-4-8-4z"/>
      <path stroke-linecap="round" stroke-width="1.667" d="M30.167 4.833v22.333"/>
    </symbol>
    <symbol id="icon-Vector-tel" viewBox="0 0 32 32">
      <path d="m28.865 21.822-4.525-.517a3.543 3.543 0 0 0-2.921 1.015l-3.278 3.278A26.8 26.8 0 0 1 6.402 13.859l3.296-3.296a3.545 3.545 0 0 0 1.015-2.921l-.517-4.489A3.566 3.566 0 0 0 6.651 0H3.569C1.556 0-.118 1.675.006 3.687.95 18.9 13.117 31.049 28.312 31.993c2.013.125 3.687-1.55 3.687-3.563v-3.082c.018-1.799-1.336-3.313-3.135-3.527z"/>
    </symbol>
    <symbol id="icon-Vector-email" viewBox="0 0 32 32">
      <path d="M28 4H4a2.996 2.996 0 0 0-2.985 3L1 25c0 1.65 1.35 3 3 3h24c1.65 0 3-1.35 3-3V7c0-1.65-1.35-3-3-3zm-.6 6.375-10.605 6.63c-.48.3-1.11.3-1.59 0L4.6 10.375c-.375-.24-.6-.645-.6-1.08C4 8.29 5.095 7.69 5.95 8.215L16 14.5l10.05-6.285c.855-.525 1.95.075 1.95 1.08 0 .435-.225.84-.6 1.08z"/>
    </symbol>

  <symbol id="icon-Checkbox" viewBox="0 0 32 32">
      <path stroke-width="2" d="M4 1h24a3 3 0 0 1 3 3v24a3 3 0 0 1-3 3H4a3 3 0 0 1-3-3V4a3 3 0 0 1 3-3z"/>
    </symbol>
   <symbol id="icon-telegram" viewBox="0 0 32 32">
      <path fill="#fff" style="fill:var(--color1, #fff)" d="m32 2.667-32 15 10.227 3.156L26 8.5 14.002 21.988l.01.003-.012-.003v7.345l5.735-5.576L27 25.999l5-23.333z"/>
    </symbol>
    <symbol id="icon-email" viewBox="0 0 24 32">
      <path d="M20 8H4c-1.1 0-1.99.9-1.99 2L2 22c0 1.1.9 2 2 2h16c1.1 0 2-.9 2-2V10c0-1.1-.9-2-2-2zm-.4 4.25-7.07 4.42c-.32.2-.74.2-1.06 0L4.4 12.25a.85.85 0 1 1 .9-1.44L12 15l6.7-4.19a.85.85 0 1 1 .9 1.44z"/>
    </symbol>
    <symbol id="icon-phone" viewBox="0 0 24 32">
      <path d="m19.635 18.487-2.451-.28a1.92 1.92 0 0 0-1.582.55l-1.775 1.775a14.514 14.514 0 0 1-6.359-6.359l1.785-1.785c.415-.415.618-.994.55-1.582l-.28-2.432a1.931 1.931 0 0 0-1.92-1.708H5.934c-1.09 0-1.997.907-1.93 1.997.511 8.24 7.102 14.821 15.332 15.332 1.09.068 1.997-.839 1.997-1.93v-1.669a1.913 1.913 0 0 0-1.698-1.911z"/>
    </symbol>
    <symbol id="icon-Frame" viewBox="0 0 32 32">
      <path fill="#4d5ae5" style="fill:var(--color2, #4d5ae5)" opacity=".3" d="M12 16c2.21 0 4-1.79 4-4s-1.79-4-4-4-4 1.79-4 4 1.79 4 4 4zm0 2c-2.67 0-8 1.34-8 4v1c0 .55.45 1 1 1h14c.55 0 1-.45 1-1v-1c0-2.66-5.33-4-8-4z"/>
      <path fill="none" opacity=".3" stroke="#2e2f42" style="stroke:var(--color3, #2e2f42)" stroke-linecap="round" stroke-width="1.667" d="M30.167 4.833v22.333"/>
    </symbol>
    <symbol id="icon-close" viewBox="0 0 32 32">
      <path d="M32 3.223 28.777 0 16 12.777 3.223 0 0 3.223 12.777 16 0 28.777 3.223 32 16 19.223 28.777 32 32 28.777 19.223 16 32 3.223z"/>
    </symbol>
    <symbol id="icon-astronaut-1" viewBox="0 0 32 32">
      <path fill="#4d5ae5" style="fill:var(--color1, #4d5ae5)" d="M31.974 4.524a.534.534 0 0 0-.43-.363l-1.91-.278-.855-1.731c-.179-.365-.777-.365-.956 0l-.855 1.731-1.91.278a.535.535 0 0 0-.296.91l1.383 1.348-.326 1.903c-.034.2.048.402.212.522a.53.53 0 0 0 .562.04l1.709-.899 1.709.899a.536.536 0 0 0 .775-.563l-.326-1.903 1.383-1.348a.536.536 0 0 0 .135-.547zm-2.463 1.327a.534.534 0 0 0-.153.472l.191 1.114-1-.526a.533.533 0 0 0-.498 0l-1.001.526.191-1.114a.534.534 0 0 0-.153-.472l-.81-.789 1.119-.163a.532.532 0 0 0 .402-.292l.5-1.013.5 1.013a.535.535 0 0 0 .402.292l1.119.163-.809.789zM26.133 20.522h-1.067v1.067h1.067v-1.067zM26.133 22.656h-1.067v1.067h1.067v-1.067zM27.2 21.589h-1.067v1.067H27.2v-1.067zM25.067 21.589H24v1.067h1.067v-1.067zM22.4 26.389h-1.067v1.067H22.4v-1.067zM22.4 28.522h-1.067v1.067H22.4v-1.067zM23.467 27.456H22.4v1.067h1.067v-1.067zM21.333 27.456h-1.067v1.067h1.067v-1.067zM16 24.256h-1.067v1.067H16v-1.067zM16 26.389h-1.067v1.067H16v-1.067zM17.067 25.322H16v1.067h1.067v-1.067zM14.933 25.322h-1.067v1.067h1.067v-1.067zM5.867 6.122H4.8v1.067h1.067V6.122zM5.867 8.255H4.8v1.067h1.067V8.255z"/>
      <path fill="#4d5ae5" style="fill:var(--color1, #4d5ae5)" d="M6.933 7.189H5.866v1.067h1.067V7.189zM4.8 7.189H3.733v1.067H4.8V7.189z"/>
      <path fill="#2e2f42" style="fill:var(--color2, #2e2f42)" d="M24.715 14.159a1.775 1.775 0 0 0-1.188-.705 1.778 1.778 0 0 0-1.34.352l-1.252.96-1.898 1.417-1.358-.541c2.421-1.086 4.114-3.508 4.114-6.32 0-3.823-3.123-6.933-6.961-6.933s-6.961 3.11-6.961 6.933a6.86 6.86 0 0 0 1.12 3.758l-2.764-.024h-.005c-.009 0-.015.004-.023.005a.515.515 0 0 0-.155.031l-.038.013c-.006.003-.013.003-.019.006l-3.233 1.596-.001.001-1.893.911a.397.397 0 0 0-.063.035 1.779 1.779 0 0 0-.598 2.295c.22.429.595.745 1.056.889a1.776 1.776 0 0 0 1.378-.128l1.388-.738 2.264-1.169 1.357-.008L2.2 22.211l-.002.001-1.339 1.333c-.316.315-.49.732-.49 1.178s.174.863.49 1.179c.325.323.752.485 1.179.485s.854-.162 1.18-.485l1.314-1.309 1.741-1.3.901.897-1.762 1.754-.002.001-1.339 1.333c-.316.315-.49.732-.49 1.178s.174.863.49 1.179c.325.323.753.485 1.18.485s.855-.162 1.18-.485l3.482-3.467.001-.002 1.01-1-.004-.004c.006-.006.015-.009.022-.015l5.166-5.658 3.471.494a.52.52 0 0 0 .262-.033c.018-.006.033-.015.05-.023.019-.01.039-.015.058-.027l3.213-2.133c.012-.008.018-.021.029-.029.013-.01.029-.014.041-.026l1.271-1.191c.662-.62.753-1.635.212-2.362zM2.13 17.77a.714.714 0 0 1-.558.052.717.717 0 0 1-.213-1.26l1.314-.632.449 1.313-.992.527zm3.498-1.828-1.548.8-.439-1.283 2.027-1.001-.04 1.484zm15.099-6.62a5.79 5.79 0 0 1-.599 2.559l-4.181-1.899a1.863 1.863 0 0 0-.788-1.388l1.464-4.86c2.378.756 4.105 2.974 4.105 5.588zm-11.789 0c0-3.235 2.644-5.867 5.894-5.867.253 0 .5.021.745.052l-1.432 4.754c-.019-.001-.037-.006-.057-.006-1.033 0-1.873.837-1.873 1.867s.84 1.867 1.873 1.867c.694 0 1.294-.383 1.618-.945l3.862 1.755a5.894 5.894 0 0 1-4.737 2.39c-3.25 0-5.894-2.632-5.894-5.867zm5.956.8c0 .441-.362.8-.806.8s-.806-.359-.806-.8c0-.441.362-.8.806-.8s.806.359.806.8zM2.465 25.146a.608.608 0 0 1-.854.001.592.592 0 0 1 0-.844l.962-.958.851.848-.959.955zm3.214 3.734a.608.608 0 0 1-.855.001.592.592 0 0 1 0-.844l.963-.959.852.848-.96.955zm3.481-3.469-.002.001-1.765 1.76-.852-.848 1.763-1.755.002-.001c.04-.04.065-.088.09-.135.007-.014.02-.026.026-.04.017-.041.019-.085.026-.129.003-.025.014-.047.014-.073 0-.036-.013-.07-.02-.106-.006-.032-.006-.065-.019-.095a.55.55 0 0 0-.091-.138c-.01-.012-.014-.027-.025-.038h-.001l-.001-.002-1.607-1.6c-.017-.017-.039-.024-.058-.038a.507.507 0 0 0-.087-.058.515.515 0 0 0-.093-.033.507.507 0 0 0-.103-.02.5.5 0 0 0-.095.005.53.53 0 0 0-.104.02.477.477 0 0 0-.094.045c-.02.011-.042.015-.061.029L4.23 23.486l-.901-.897 2.399-2.386 4.361 4.289-.928.919zm6.819-7.017c-.015-.002-.03.004-.045.003a.556.556 0 0 0-.3.075.492.492 0 0 0-.083.061c-.013.011-.028.017-.04.029l-4.698 5.146-4.328-4.257 2.833-2.818a.534.534 0 0 0-.379-.911v-.001l-2.219.013.028-1.607 3.104.027a6.947 6.947 0 0 0 4.981 2.101c.437 0 .864-.045 1.279-.123.04.032.079.065.13.085l2.41.96.152.758.178.885-3.003-.427zm4.041.178-.313-1.558 1.446-1.08.947 1.257-2.08 1.381zm3.754-2.831-.838.785-.931-1.236.831-.637a.735.735 0 0 1 .543-.143.718.718 0 0 1 .48.284.713.713 0 0 1-.085.947z"/>
      <path fill="#2e2f42" style="fill:var(--color2, #2e2f42)" d="m13.602 18.544-2.143-2.133a.534.534 0 0 0-.753 0l-2.142 2.133a.537.537 0 0 0 0 .756l2.142 2.133a.536.536 0 0 0 .753 0l2.143-2.133a.535.535 0 0 0 0-.756zm-2.519 1.759-1.387-1.381 1.387-1.381 1.387 1.381-1.387 1.381zM17.164 5.071l-.258 1.036c.071.018 1.738.452 1.738 2.149h1.067c0-2.017-1.666-2.965-2.547-3.185zM19.711 9.322h-1.067v1.067h1.067V9.322z"/>
    </symbol>
    <symbol id="icon-diagram-1" viewBox="0 0 32 32">
      <path fill="#4d5ae5" style="fill:var(--color1, #4d5ae5)" d="M14.925 14.965h1.066v4.798h-1.066v-4.797zM19.19 17.097h1.066v2.665H19.19v-2.665zM10.661 18.696h1.066v1.066h-1.066v-1.066zM7.463 18.163h1.066v1.599H7.463v-1.599z"/>
      <path fill="#2e2f42" style="fill:var(--color2, #2e2f42)" d="M1.599 28.291h25.587a1.6 1.6 0 0 0 1.599-1.599V24.56a1.6 1.6 0 0 0-1.599-1.599h-.533V9.668L29.681 6.8a1.608 1.608 0 1 0-.746-.763L26.654 8.2V6.97a1.6 1.6 0 0 0-1.599-1.599H3.733A1.6 1.6 0 0 0 2.134 6.97v15.992h-.533a1.6 1.6 0 0 0-1.599 1.599v2.132a1.6 1.6 0 0 0 1.599 1.599zM30.384 4.837a.533.533 0 1 1 0 1.067.533.533 0 0 1 0-1.067zM3.198 6.969c0-.294.239-.533.533-.533h21.322c.294 0 .533.239.533.533v2.239l-1.066 1.013V8.035a.533.533 0 0 0-.533-.533H4.797a.533.533 0 0 0-.533.533v13.326c0 .294.239.533.533.533h19.19a.533.533 0 0 0 .533-.533v-9.674l1.066-1.01v12.284H3.198V6.969zm4.798 6.93a1.598 1.598 0 1 0 1.107 2.749l1.853.93a.532.532 0 0 0 .636-.123l3.939-4.431 3.872 2.901a.533.533 0 0 0 .686-.039l3.365-3.188v8.131H5.33V8.569h18.124v2.66l-3.771 3.572-3.904-2.927a.533.533 0 0 0-.718.072l-3.993 4.493-1.493-.746c.011-.064.018-.129.02-.193a1.6 1.6 0 0 0-1.599-1.599zm.533 1.599a.533.533 0 1 1-1.067 0 .533.533 0 0 1 1.067 0zm3.198 8.529h5.331v.533a.533.533 0 0 1-.533.533h-4.264a.533.533 0 0 1-.533-.533v-.533zm-10.661.533c0-.294.239-.533.533-.533h9.062v.533a1.6 1.6 0 0 0 1.599 1.599h4.264a1.6 1.6 0 0 0 1.599-1.599v-.533h9.062c.294 0 .533.239.533.533v2.132a.533.533 0 0 1-.533.533H1.598a.533.533 0 0 1-.533-.533V24.56z"/>
    </symbol>
    <symbol id="icon-antenna-1" viewBox="0 0 32 32">
      <path fill="#2e2f42" style="fill:var(--color2, #2e2f42)" d="m30.773 22.098-8.443-8.505.937-4.615c.242.094.499.144.758.146h.006a2.159 2.159 0 1 0-2.008-1.435l-4.96.605L8.972.161a.534.534 0 0 0-.377-.16.532.532 0 0 0-.373.155L6.709 1.66a.534.534 0 0 0 0 .754l.814.826a14.943 14.943 0 0 0 2.519 17.663.513.513 0 0 0 .146.098c-.034.18-.051.364-.052.547v6.187h-6.4a2.67 2.67 0 0 0-2.667 2.667v1.067c0 .295.239.533.533.533h24.533a.533.533 0 0 0 .533-.533v-1.067a2.67 2.67 0 0 0-2.667-2.667h-6.4v-2.742a15.09 15.09 0 0 0 3.049.32 14.854 14.854 0 0 0 7.04-1.783l.818.823a.534.534 0 0 0 .377.16.532.532 0 0 0 .373-.155l1.513-1.504a.534.534 0 0 0 0-.754zM23.28 6.233a1.067 1.067 0 1 1 .753 1.822h-.003a1.067 1.067 0 0 1-.747-1.823h-.002zm-1.256 3.505-.598 2.946-1.175-1.182 1.774-1.763zm-.605-.902-1.92 1.909-1.485-1.493 3.405-.415zM24.004 28.8a1.6 1.6 0 0 1 1.6 1.6v.533H2.137V30.4a1.6 1.6 0 0 1 1.6-1.6h20.267zm-7.467-2.133v1.067h-5.333v-1.067h5.333zM11.204 25.6v-4.053c0-1.294 1.196-2.347 2.667-2.347s2.667 1.053 2.667 2.347V25.6h-5.333zm6.4-1.696v-2.357c0-1.882-1.675-3.413-3.733-3.413a3.8 3.8 0 0 0-3.281 1.786A13.87 13.87 0 0 1 8.311 4.033l18.602 18.708a13.818 13.818 0 0 1-9.309 1.163zm11.289-.684L7.836 2.039l.755-.752 7.935 7.98c.004 0 .006.007.01.01l13.115 13.191-.757.752z"/>
      <path fill="#4d5ae5" style="fill:var(--color1, #4d5ae5)" d="M13.876 20.267h-.005a1.6 1.6 0 1 0-.004 3.2h.005a1.6 1.6 0 1 0 .004-3.2zm.373 1.978a.534.534 0 0 1-.752-.756.534.534 0 0 1 .373-.155.534.534 0 0 1 .374.911h.005z"/>
    </symbol>
    <symbol id="icon-clock-1" viewBox="0 0 32 32">
      <path fill="#2e2f42" style="fill:var(--color2, #2e2f42)" d="M31.297 15.301C31.295 6.849 24.442-.002 15.989 0S.686 6.855.688 15.308a15.304 15.304 0 0 0 10.649 14.576.662.662 0 0 0 .529-.065.637.637 0 0 0 .283-.356l3.865-12.25a1.912 1.912 0 1 0-.84-3.635l-5.106-5.107a.637.637 0 0 0-.902.902l5.103 5.109a1.876 1.876 0 0 0 .536 2.309l-3.683 11.673C3.844 25.783.118 17.71 2.799 10.432S13.553-.572 20.831 2.109c7.278 2.681 11.004 10.754 8.323 18.032a14.042 14.042 0 0 1-7.462 7.973l-.398-1.874a.637.637 0 0 0-1.049-.344l-3.837 3.426a.637.637 0 0 0 .231 1.084l4.899 1.564a.638.638 0 0 0 .819-.74l-.391-1.839a15.255 15.255 0 0 0 9.329-14.089zm-15.305-.637a.638.638 0 1 1 0 1.277.638.638 0 0 1 0-1.277zm2.101 14.864 2.184-1.948.603 2.84-2.787-.892z"/>
      <path fill="#4d5ae5" style="fill:var(--color1, #4d5ae5)" d="M15.354 3.185V4.46a.638.638 0 1 0 1.276 0V3.185a.638.638 0 0 0-1.276 0zM3.876 14.664a.638.638 0 0 0 0 1.276h1.275a.638.638 0 1 0 0-1.276H3.876zM28.108 15.939a.638.638 0 1 0 0-1.276h-1.275a.638.638 0 0 0 0 1.276h1.275z"/>
    </symbol>
    <symbol id="icon-linkedin" viewBox="0 0 32 32">
      <path d="M31.992 32v-.001H32V20.263c0-5.741-1.236-10.164-7.948-10.164-3.227 0-5.392 1.771-6.276 3.449h-.093v-2.913h-6.364v21.364h6.627V21.42c0-2.785.528-5.479 3.977-5.479 3.399 0 3.449 3.179 3.449 5.657v10.401h6.62zM.528 10.636h6.635V32H.528V10.636zM3.843 0C1.722 0 0 1.721 0 3.843s1.721 3.879 3.843 3.879c2.121 0 3.843-1.757 3.843-3.879A3.846 3.846 0 0 0 3.843 0z"/>
    </symbol>
    <symbol id="icon-facebook" viewBox="0 0 32 32">
      <path d="M21.329 5.313h2.921V.225C23.746.156 22.013 0 19.994 0c-4.212 0-7.097 2.649-7.097 7.519V12H8.249v5.688h4.648V32h5.699V17.689h4.46l.708-5.688h-5.169V8.082c.001-1.644.444-2.769 2.735-2.769z"/>
    </symbol>
    <symbol id="icon-twitter" viewBox="0 0 32 32">
      <path d="M32 6.078c-1.19.522-2.458.868-3.78 1.036a6.523 6.523 0 0 0 2.886-3.626 13.11 13.11 0 0 1-4.16 1.588A6.574 6.574 0 0 0 22.154 3c-3.632 0-6.556 2.948-6.556 6.562 0 .52.044 1.02.152 1.496-5.454-.266-10.28-2.88-13.522-6.862a6.605 6.605 0 0 0-.898 3.316 6.57 6.57 0 0 0 2.914 5.452 6.479 6.479 0 0 1-2.964-.808v.072c0 3.188 2.274 5.836 5.256 6.446a6.548 6.548 0 0 1-1.72.216 5.8 5.8 0 0 1-1.242-.112c.85 2.598 3.262 4.508 6.13 4.57a13.182 13.182 0 0 1-8.134 2.798c-.538 0-1.054-.024-1.57-.09A18.469 18.469 0 0 0 10.064 29c12.072 0 18.672-10 18.672-18.668 0-.29-.01-.57-.024-.848A13.087 13.087 0 0 0 32 6.078z"/>
    </symbol>
    <symbol id="icon-instagram" viewBox="0 0 32 32">
      <path d="M31.969 9.408c-.075-1.7-.35-2.869-.744-3.882a7.803 7.803 0 0 0-1.85-2.838A7.867 7.867 0 0 0 26.543.844C25.524.45 24.361.175 22.661.1 20.948.019 20.404 0 16.06 0s-4.888.019-6.595.094c-1.7.075-2.869.35-3.882.744a7.803 7.803 0 0 0-2.838 1.85A7.867 7.867 0 0 0 .901 5.52C.507 6.539.232 7.702.157 9.402c-.081 1.713-.1 2.257-.1 6.601s.019 4.888.094 6.595c.075 1.7.35 2.869.744 3.882a7.895 7.895 0 0 0 1.85 2.838 7.867 7.867 0 0 0 2.832 1.844c1.019.394 2.182.669 3.882.744 1.706.075 2.25.094 6.595.094s4.888-.019 6.595-.094c1.7-.075 2.869-.35 3.882-.744a8.181 8.181 0 0 0 4.682-4.682c.394-1.019.669-2.182.744-3.882.075-1.707.094-2.25.094-6.595s-.006-4.888-.081-6.595zm-2.882 13.065c-.069 1.563-.331 2.407-.55 2.969a5.31 5.31 0 0 1-3.038 3.038c-.563.219-1.413.481-2.969.55-1.688.075-2.194.094-6.464.094s-4.782-.019-6.464-.094c-1.563-.069-2.407-.331-2.969-.55a4.926 4.926 0 0 1-1.838-1.194 4.974 4.974 0 0 1-1.194-1.838c-.219-.563-.481-1.413-.55-2.969-.075-1.688-.094-2.194-.094-6.464s.019-4.782.094-6.464c.069-1.563.331-2.407.55-2.969a4.868 4.868 0 0 1 1.2-1.838A4.974 4.974 0 0 1 6.639 3.55c.563-.219 1.413-.481 2.969-.55 1.688-.075 2.194-.094 6.464-.094 4.276 0 4.782.019 6.464.094 1.563.069 2.407.331 2.969.55a4.914 4.914 0 0 1 1.838 1.194 4.974 4.974 0 0 1 1.194 1.838c.219.563.481 1.413.55 2.969.075 1.688.094 2.194.094 6.464s-.019 4.77-.094 6.458z"/>
      <path d="M16.059 7.783c-4.538 0-8.22 3.682-8.22 8.22s3.682 8.22 8.22 8.22 8.22-3.682 8.22-8.22-3.682-8.22-8.22-8.22zm0 13.552a5.333 5.333 0 0 1 0-10.664 5.333 5.333 0 0 1 0 10.664zM26.524 7.458a1.919 1.919 0 1 1-3.838 0 1.919 1.919 0 0 1 3.838 0z"/>
    </symbol>
    <symbol id="icon-astronaut" viewBox="0 0 32 32">
      <path d="M31.974 4.524a.534.534 0 0 0-.43-.363l-1.91-.278-.855-1.731c-.179-.365-.777-.365-.956 0l-.855 1.731-1.91.278a.535.535 0 0 0-.296.91l1.383 1.348-.326 1.903c-.034.2.048.402.212.522a.53.53 0 0 0 .562.04l1.709-.899 1.709.899a.536.536 0 0 0 .775-.563l-.326-1.903 1.383-1.348a.536.536 0 0 0 .135-.547zm-2.463 1.327a.534.534 0 0 0-.153.472l.191 1.114-1-.526a.533.533 0 0 0-.498 0l-1.001.526.191-1.114a.534.534 0 0 0-.153-.472l-.81-.789 1.119-.163a.532.532 0 0 0 .402-.292l.5-1.013.5 1.013a.535.535 0 0 0 .402.292l1.119.163-.809.789zM26.133 20.522h-1.067v1.067h1.067v-1.067zM26.133 22.656h-1.067v1.067h1.067v-1.067zM27.2 21.589h-1.067v1.067H27.2v-1.067zM25.067 21.589H24v1.067h1.067v-1.067zM22.4 26.389h-1.067v1.067H22.4v-1.067zM22.4 28.522h-1.067v1.067H22.4v-1.067zM23.467 27.456H22.4v1.067h1.067v-1.067zM21.333 27.456h-1.067v1.067h1.067v-1.067zM16 24.256h-1.067v1.067H16v-1.067zM16 26.389h-1.067v1.067H16v-1.067zM17.067 25.322H16v1.067h1.067v-1.067zM14.933 25.322h-1.067v1.067h1.067v-1.067zM5.867 6.122H4.8v1.067h1.067V6.122zM5.867 8.255H4.8v1.067h1.067V8.255z"/>
      <path d="M6.933 7.189H5.866v1.067h1.067V7.189zM4.8 7.189H3.733v1.067H4.8V7.189z"/>
      <path d="M24.715 14.159a1.775 1.775 0 0 0-1.188-.705 1.778 1.778 0 0 0-1.34.352l-1.252.96-1.898 1.417-1.358-.541c2.421-1.086 4.114-3.508 4.114-6.32 0-3.823-3.123-6.933-6.961-6.933s-6.961 3.11-6.961 6.933a6.86 6.86 0 0 0 1.12 3.758l-2.764-.024h-.005c-.009 0-.015.004-.023.005a.515.515 0 0 0-.155.031l-.038.013c-.006.003-.013.003-.019.006l-3.233 1.596-.001.001-1.893.911a.397.397 0 0 0-.063.035 1.779 1.779 0 0 0-.598 2.295c.22.429.595.745 1.056.889a1.776 1.776 0 0 0 1.378-.128l1.388-.738 2.264-1.169 1.357-.008L2.2 22.211l-.002.001-1.339 1.333c-.316.315-.49.732-.49 1.178s.174.863.49 1.179c.325.323.752.485 1.179.485s.854-.162 1.18-.485l1.314-1.309 1.741-1.3.901.897-1.762 1.754-.002.001-1.339 1.333c-.316.315-.49.732-.49 1.178s.174.863.49 1.179c.325.323.753.485 1.18.485s.855-.162 1.18-.485l3.482-3.467.001-.002 1.01-1-.004-.004c.006-.006.015-.009.022-.015l5.166-5.658 3.471.494a.52.52 0 0 0 .262-.033c.018-.006.033-.015.05-.023.019-.01.039-.015.058-.027l3.213-2.133c.012-.008.018-.021.029-.029.013-.01.029-.014.041-.026l1.271-1.191c.662-.62.753-1.635.212-2.362zM2.13 17.77a.714.714 0 0 1-.558.052.717.717 0 0 1-.213-1.26l1.314-.632.449 1.313-.992.527zm3.498-1.828-1.548.8-.439-1.283 2.027-1.001-.04 1.484zm15.099-6.62a5.79 5.79 0 0 1-.599 2.559l-4.181-1.899a1.863 1.863 0 0 0-.788-1.388l1.464-4.86c2.378.756 4.105 2.974 4.105 5.588zm-11.789 0c0-3.235 2.644-5.867 5.894-5.867.253 0 .5.021.745.052l-1.432 4.754c-.019-.001-.037-.006-.057-.006-1.033 0-1.873.837-1.873 1.867s.84 1.867 1.873 1.867c.694 0 1.294-.383 1.618-.945l3.862 1.755a5.894 5.894 0 0 1-4.737 2.39c-3.25 0-5.894-2.632-5.894-5.867zm5.956.8c0 .441-.362.8-.806.8s-.806-.359-.806-.8c0-.441.362-.8.806-.8s.806.359.806.8zM2.465 25.146a.608.608 0 0 1-.854.001.592.592 0 0 1 0-.844l.962-.958.851.848-.959.955zm3.214 3.734a.608.608 0 0 1-.855.001.592.592 0 0 1 0-.844l.963-.959.852.848-.96.955zm3.481-3.469-.002.001-1.765 1.76-.852-.848 1.763-1.755.002-.001c.04-.04.065-.088.09-.135.007-.014.02-.026.026-.04.017-.041.019-.085.026-.129.003-.025.014-.047.014-.073 0-.036-.013-.07-.02-.106-.006-.032-.006-.065-.019-.095a.55.55 0 0 0-.091-.138c-.01-.012-.014-.027-.025-.038h-.001l-.001-.002-1.607-1.6c-.017-.017-.039-.024-.058-.038a.507.507 0 0 0-.087-.058.515.515 0 0 0-.093-.033.507.507 0 0 0-.103-.02.5.5 0 0 0-.095.005.53.53 0 0 0-.104.02.477.477 0 0 0-.094.045c-.02.011-.042.015-.061.029L4.23 23.486l-.901-.897 2.399-2.386 4.361 4.289-.928.919zm6.819-7.017c-.015-.002-.03.004-.045.003a.556.556 0 0 0-.3.075.492.492 0 0 0-.083.061c-.013.011-.028.017-.04.029l-4.698 5.146-4.328-4.257 2.833-2.818a.534.534 0 0 0-.379-.911v-.001l-2.219.013.028-1.607 3.104.027a6.947 6.947 0 0 0 4.981 2.101c.437 0 .864-.045 1.279-.123.04.032.079.065.13.085l2.41.96.152.758.178.885-3.003-.427zm4.041.178-.313-1.558 1.446-1.08.947 1.257-2.08 1.381zm3.754-2.831-.838.785-.931-1.236.831-.637a.735.735 0 0 1 .543-.143.718.718 0 0 1 .48.284.713.713 0 0 1-.085.947z"/>
      <path d="m13.602 18.544-2.143-2.133a.534.534 0 0 0-.753 0l-2.142 2.133a.537.537 0 0 0 0 .756l2.142 2.133a.536.536 0 0 0 .753 0l2.143-2.133a.535.535 0 0 0 0-.756zm-2.519 1.759-1.387-1.381 1.387-1.381 1.387 1.381-1.387 1.381zM17.164 5.071l-.258 1.036c.071.018 1.738.452 1.738 2.149h1.067c0-2.017-1.666-2.965-2.547-3.185zM19.711 9.322h-1.067v1.067h1.067V9.322z"/>
    </symbol>
  </defs>
</svg>
